<?xml version="1.0" encoding="UTF-8"?>
<!DOCTYPE svg PUBLIC "-//W3C//DTD SVG 1.1//EN" "http://www.w3.org/Graphics/SVG/1.1/DTD/svg11.dtd">
<svg xmlns="http://www.w3.org/2000/svg" version="1.1" width="2138px" height="1629px" style="shape-rendering:geometricPrecision; text-rendering:geometricPrecision; image-rendering:optimizeQuality; fill-rule:evenodd; clip-rule:evenodd" xmlns:xlink="http://www.w3.org/1999/xlink">
<g><path style="opacity:1" fill="#eabf60" d="M 1655.5,251.5 C 1656.76,254.427 1658.76,256.761 1661.5,258.5C 1664.5,260.833 1667.17,263.5 1669.5,266.5C 1669.74,268.404 1670.74,269.738 1672.5,270.5C 1677.54,274.539 1681.87,279.206 1685.5,284.5C 1685.43,286.027 1686.09,287.027 1687.5,287.5C 1688.5,287.833 1689.17,288.5 1689.5,289.5C 1689.74,291.404 1690.74,292.738 1692.5,293.5C 1693.5,293.833 1694.17,294.5 1694.5,295.5C 1694.74,297.404 1695.74,298.738 1697.5,299.5C 1701.18,303.183 1704.51,307.183 1707.5,311.5C 1707.43,313.027 1708.09,314.027 1709.5,314.5C 1710.17,314.5 1710.5,314.833 1710.5,315.5C 1710.74,317.404 1711.74,318.738 1713.5,319.5C 1715.54,320.579 1716.88,322.246 1717.5,324.5C 1717.43,326.027 1718.09,327.027 1719.5,327.5C 1720.17,327.5 1720.5,327.833 1720.5,328.5C 1720.43,330.027 1721.09,331.027 1722.5,331.5C 1723.17,331.5 1723.5,331.833 1723.5,332.5C 1723.43,334.027 1724.09,335.027 1725.5,335.5C 1726.97,336.436 1727.97,337.77 1728.5,339.5C 1728.43,341.027 1729.09,342.027 1730.5,342.5C 1731.97,343.436 1732.97,344.77 1733.5,346.5C 1733.43,348.027 1734.09,349.027 1735.5,349.5C 1735.43,351.027 1736.09,352.027 1737.5,352.5C 1737.43,354.027 1738.09,355.027 1739.5,355.5C 1743.99,361.148 1747.99,367.148 1751.5,373.5C 1751.43,375.027 1752.09,376.027 1753.5,376.5C 1827.76,377.33 1902.1,377.83 1976.5,378C 2025.17,381.501 2065.17,401.668 2096.5,438.5C 2096.74,440.404 2097.74,441.738 2099.5,442.5C 2101.54,443.579 2102.88,445.246 2103.5,447.5C 2103.43,449.027 2104.09,450.027 2105.5,450.5C 2105.43,452.027 2106.09,453.027 2107.5,453.5C 2107.43,455.027 2108.09,456.027 2109.5,456.5C 2123.81,477.925 2132.31,501.591 2135,527.5C 2135.67,718.833 2135.67,910.167 2135,1101.5C 2125.12,1167.03 2089.95,1213.2 2029.5,1240C 2014,1245.87 1998,1249.54 1981.5,1251C 1905.5,1251.17 1829.5,1251.67 1753.5,1252.5C 1646.82,1415.4 1500.82,1527.56 1315.5,1589C 1171.61,1633.17 1026.28,1638.5 879.5,1605C 806.909,1587.86 738.242,1561.02 673.5,1524.5C 673.027,1523.09 672.027,1522.43 670.5,1522.5C 666.345,1521.26 662.678,1519.26 659.5,1516.5C 659.027,1515.09 658.027,1514.43 656.5,1514.5C 652.164,1512.67 648.164,1510.33 644.5,1507.5C 644.027,1506.09 643.027,1505.43 641.5,1505.5C 639.566,1504.89 637.899,1503.89 636.5,1502.5C 636.027,1501.09 635.027,1500.43 633.5,1500.5C 633.027,1499.09 632.027,1498.43 630.5,1498.5C 630.027,1497.09 629.027,1496.43 627.5,1496.5C 624.489,1495.33 621.822,1493.66 619.5,1491.5C 619.027,1490.09 618.027,1489.43 616.5,1489.5C 613.865,1488.19 611.531,1486.52 609.5,1484.5C 609.027,1483.09 608.027,1482.43 606.5,1482.5C 606.027,1481.09 605.027,1480.43 603.5,1480.5C 603.027,1479.09 602.027,1478.43 600.5,1478.5C 598.77,1477.97 597.436,1476.97 596.5,1475.5C 596.027,1474.09 595.027,1473.43 593.5,1473.5C 591.77,1472.97 590.436,1471.97 589.5,1470.5C 588.738,1468.74 587.404,1467.74 585.5,1467.5C 585.027,1466.09 584.027,1465.43 582.5,1465.5C 581.833,1465.5 581.5,1465.17 581.5,1464.5C 581.027,1463.09 580.027,1462.43 578.5,1462.5C 577.833,1462.5 577.5,1462.17 577.5,1461.5C 576.738,1459.74 575.404,1458.74 573.5,1458.5C 566.429,1453.64 559.762,1448.3 553.5,1442.5C 552.738,1440.74 551.404,1439.74 549.5,1439.5C 548.5,1439.17 547.833,1438.5 547.5,1437.5C 547.027,1436.09 546.027,1435.43 544.5,1435.5C 537.509,1429.84 530.843,1423.84 524.5,1417.5C 523.415,1415.41 521.749,1414.08 519.5,1413.5C 516.167,1410.83 513.167,1407.83 510.5,1404.5C 510.027,1403.09 509.027,1402.43 507.5,1402.5C 459.98,1357.36 418.646,1307.36 383.5,1252.5C 307.502,1251.67 231.502,1251.17 155.5,1251C 130.797,1248.93 107.797,1241.76 86.5,1229.5C 86.0269,1228.09 85.0269,1227.43 83.5,1227.5C 82.5084,1227.67 81.8417,1227.34 81.5,1226.5C 81.0269,1225.09 80.0269,1224.43 78.5,1224.5C 76.9731,1224.57 75.9731,1223.91 75.5,1222.5C 75.0269,1221.09 74.0269,1220.43 72.5,1220.5C 65.5557,1215.89 59.2224,1210.56 53.5,1204.5C 53.0269,1203.09 52.0269,1202.43 50.5,1202.5C 22.6078,1174.71 6.44117,1141.04 2,1101.5C 1.33333,910.167 1.33333,718.833 2,527.5C 4.49732,504.175 11.664,482.509 23.5,462.5C 24.9063,462.027 25.573,461.027 25.5,459.5C 26.1103,457.566 27.1103,455.899 28.5,454.5C 29.9063,454.027 30.573,453.027 30.5,451.5C 31.0256,449.77 32.0256,448.436 33.5,447.5C 34.9063,447.027 35.573,446.027 35.5,444.5C 35.5,443.833 35.8333,443.5 36.5,443.5C 38.2624,442.738 39.2624,441.404 39.5,439.5C 39.8333,438.5 40.5,437.833 41.5,437.5C 42.9063,437.027 43.573,436.027 43.5,434.5C 47.1667,430.167 51.1667,426.167 55.5,422.5C 57.7488,421.92 59.4154,420.587 60.5,418.5C 60.8333,417.5 61.5,416.833 62.5,416.5C 64.4044,416.262 65.7377,415.262 66.5,413.5C 67.5794,411.457 69.246,410.124 71.5,409.5C 73.0269,409.573 74.0269,408.906 74.5,407.5C 74.9731,406.094 75.9731,405.427 77.5,405.5C 79.0269,405.573 80.0269,404.906 80.5,403.5C 83.0078,401.076 86.0078,399.41 89.5,398.5C 91.0269,398.573 92.0269,397.906 92.5,396.5C 113.665,385.207 136.331,379.207 160.5,378.5C 235.174,379.164 309.507,378.497 383.5,376.5C 384.906,376.027 385.573,375.027 385.5,373.5C 385.427,371.973 386.094,370.973 387.5,370.5C 388.906,370.027 389.573,369.027 389.5,367.5C 390.906,367.027 391.573,366.027 391.5,364.5C 392.906,364.027 393.573,363.027 393.5,361.5C 394.906,361.027 395.573,360.027 395.5,358.5C 396.906,358.027 397.573,357.027 397.5,355.5C 398.906,355.027 399.573,354.027 399.5,352.5C 400.026,350.77 401.026,349.436 402.5,348.5C 403.906,348.027 404.573,347.027 404.5,345.5C 405.906,345.027 406.573,344.027 406.5,342.5C 407.026,340.77 408.026,339.436 409.5,338.5C 410.906,338.027 411.573,337.027 411.5,335.5C 411.5,334.833 411.833,334.5 412.5,334.5C 413.906,334.027 414.573,333.027 414.5,331.5C 414.5,330.833 414.833,330.5 415.5,330.5C 416.906,330.027 417.573,329.027 417.5,327.5C 418.124,325.246 419.457,323.579 421.5,322.5C 422.906,322.027 423.573,321.027 423.5,319.5C 423.5,318.833 423.833,318.5 424.5,318.5C 426.262,317.738 427.262,316.404 427.5,314.5C 428.124,312.246 429.457,310.579 431.5,309.5C 433.262,308.738 434.262,307.404 434.5,305.5C 434.5,304.833 434.833,304.5 435.5,304.5C 437.262,303.738 438.262,302.404 438.5,300.5C 438.833,299.5 439.5,298.833 440.5,298.5C 442.262,297.738 443.262,296.404 443.5,294.5C 443.833,293.5 444.5,292.833 445.5,292.5C 447.262,291.738 448.262,290.404 448.5,288.5C 448.833,287.5 449.5,286.833 450.5,286.5C 451.906,286.027 452.573,285.027 452.5,283.5C 453.833,281.5 455.5,279.833 457.5,278.5C 459.262,277.738 460.262,276.404 460.5,274.5C 461.833,272.5 463.5,270.833 465.5,269.5C 467.587,268.415 468.92,266.749 469.5,264.5C 472.167,261.167 475.167,258.167 478.5,255.5C 481.243,253.761 483.243,251.427 484.5,248.5C 493.779,240.889 502.446,232.555 510.5,223.5C 512.167,221.167 514.167,219.167 516.5,217.5C 519.427,216.243 521.761,214.243 523.5,211.5C 524.5,209.833 525.833,208.5 527.5,207.5C 529.749,206.92 531.415,205.587 532.5,203.5C 533.167,202.167 534.167,201.167 535.5,200.5C 537.749,199.92 539.415,198.587 540.5,196.5C 540.833,195.5 541.5,194.833 542.5,194.5C 544.749,193.92 546.415,192.587 547.5,190.5C 547.5,189.833 547.833,189.5 548.5,189.5C 550.749,188.92 552.415,187.587 553.5,185.5C 553.5,184.833 553.833,184.5 554.5,184.5C 556.404,184.262 557.738,183.262 558.5,181.5C 559.891,179.11 561.891,177.443 564.5,176.5C 566.404,176.262 567.738,175.262 568.5,173.5C 569.579,171.457 571.246,170.124 573.5,169.5C 575.404,169.262 576.738,168.262 577.5,166.5C 579.404,166.262 580.738,165.262 581.5,163.5C 583.404,163.262 584.738,162.262 585.5,160.5C 587.86,158.147 590.527,156.147 593.5,154.5C 595.027,154.573 596.027,153.906 596.5,152.5C 597.436,151.026 598.77,150.026 600.5,149.5C 602.027,149.573 603.027,148.906 603.5,147.5C 613.148,140.34 623.148,133.673 633.5,127.5C 635.027,127.573 636.027,126.906 636.5,125.5C 639.494,123 642.827,121 646.5,119.5C 648.027,119.573 649.027,118.906 649.5,117.5C 649.842,116.662 650.508,116.328 651.5,116.5C 653.027,116.573 654.027,115.906 654.5,114.5C 659.502,110.997 664.835,107.997 670.5,105.5C 672.027,105.573 673.027,104.906 673.5,103.5C 814.126,25.8492 964.792,-7.65077 1125.5,3C 1307.57,17.1947 1467.23,83.528 1604.5,202C 1622.31,217.641 1639.31,234.141 1655.5,251.5 Z M 954.5,94.5 C 956.099,94.2322 957.432,94.5655 958.5,95.5C 956.833,96.5 955.5,97.8333 954.5,99.5C 952.833,100.5 951.5,101.833 950.5,103.5C 947.236,105.094 944.569,107.427 942.5,110.5C 940.5,111.833 938.833,113.5 937.5,115.5C 934.236,117.094 931.569,119.427 929.5,122.5C 926.5,124.833 923.833,127.5 921.5,130.5C 916.895,133.436 912.895,137.102 909.5,141.5C 902.833,147.5 896.5,153.833 890.5,160.5C 884.167,164.833 878.833,170.167 874.5,176.5C 868.167,182.167 862.167,188.167 856.5,194.5C 854.167,196.167 852.167,198.167 850.5,200.5C 848.086,201.911 846.419,203.911 845.5,206.5C 841.833,209.5 838.5,212.833 835.5,216.5C 833.413,217.585 832.08,219.251 831.5,221.5C 828.833,223.5 826.5,225.833 824.5,228.5C 822.413,229.585 821.08,231.251 820.5,233.5C 818.5,234.833 816.833,236.5 815.5,238.5C 813.738,239.262 812.738,240.596 812.5,242.5C 810.167,244.167 808.167,246.167 806.5,248.5C 805.094,248.973 804.427,249.973 804.5,251.5C 802.5,252.833 800.833,254.5 799.5,256.5C 798.094,256.973 797.427,257.973 797.5,259.5C 795.833,260.5 794.5,261.833 793.5,263.5C 792.094,263.973 791.427,264.973 791.5,266.5C 789.833,267.5 788.5,268.833 787.5,270.5C 786.094,270.973 785.427,271.973 785.5,273.5C 784.5,273.833 783.833,274.5 783.5,275.5C 781.738,276.262 780.738,277.596 780.5,279.5C 779.5,279.833 778.833,280.5 778.5,281.5C 776.738,282.262 775.738,283.596 775.5,285.5C 774.167,286.167 773.167,287.167 772.5,288.5C 771.094,288.973 770.427,289.973 770.5,291.5C 769.833,291.5 769.5,291.833 769.5,292.5C 767.738,293.262 766.738,294.596 766.5,296.5C 763.152,299.851 760.152,303.518 757.5,307.5C 755.738,308.262 754.738,309.596 754.5,311.5C 753.833,311.5 753.5,311.833 753.5,312.5C 751.738,313.262 750.738,314.596 750.5,316.5C 749.833,316.5 749.5,316.833 749.5,317.5C 748.094,317.973 747.427,318.973 747.5,320.5C 745.457,321.579 744.124,323.246 743.5,325.5C 741.738,326.262 740.738,327.596 740.5,329.5C 739.833,329.5 739.5,329.833 739.5,330.5C 738.094,330.973 737.427,331.973 737.5,333.5C 736.833,333.5 736.5,333.833 736.5,334.5C 735.094,334.973 734.427,335.973 734.5,337.5C 733.833,337.5 733.5,337.833 733.5,338.5C 732.094,338.973 731.427,339.973 731.5,341.5C 730.833,341.5 730.5,341.833 730.5,342.5C 729.094,342.973 728.427,343.973 728.5,345.5C 726.738,346.262 725.738,347.596 725.5,349.5C 724.026,350.436 723.026,351.77 722.5,353.5C 721.094,353.973 720.427,354.973 720.5,356.5C 719.026,357.436 718.026,358.77 717.5,360.5C 716.094,360.973 715.427,361.973 715.5,363.5C 714.026,364.436 713.026,365.77 712.5,367.5C 711.094,367.973 710.427,368.973 710.5,370.5C 636.998,370.833 563.665,370.499 490.5,369.5C 594.643,237.2 728.643,149.7 892.5,107C 913.067,102.12 933.733,97.9534 954.5,94.5 Z M 1179.5,95.5 C 1278.46,110.666 1370.46,144.333 1455.5,196.5C 1455.97,197.906 1456.97,198.573 1458.5,198.5C 1460.82,200.664 1463.49,202.331 1466.5,203.5C 1466.97,204.906 1467.97,205.573 1469.5,205.5C 1473.21,208.526 1477.21,211.192 1481.5,213.5C 1481.97,214.906 1482.97,215.573 1484.5,215.5C 1484.97,216.906 1485.97,217.573 1487.5,217.5C 1487.97,218.906 1488.97,219.573 1490.5,219.5C 1490.5,220.167 1490.83,220.5 1491.5,220.5C 1491.97,221.906 1492.97,222.573 1494.5,222.5C 1494.97,223.906 1495.97,224.573 1497.5,224.5C 1497.5,225.167 1497.83,225.5 1498.5,225.5C 1498.97,226.906 1499.97,227.573 1501.5,227.5C 1505.1,230.975 1509.1,233.975 1513.5,236.5C 1514.26,238.262 1515.6,239.262 1517.5,239.5C 1517.5,240.167 1517.83,240.5 1518.5,240.5C 1518.97,241.906 1519.97,242.573 1521.5,242.5C 1525.18,246.18 1529.18,249.514 1533.5,252.5C 1534.26,254.262 1535.6,255.262 1537.5,255.5C 1537.83,256.5 1538.5,257.167 1539.5,257.5C 1540.26,259.262 1541.6,260.262 1543.5,260.5C 1547.08,264.623 1551.08,268.29 1555.5,271.5C 1556.26,273.262 1557.6,274.262 1559.5,274.5C 1561.5,277.167 1563.83,279.5 1566.5,281.5C 1568.24,284.243 1570.57,286.243 1573.5,287.5C 1598.99,313.31 1622.99,340.31 1645.5,368.5C 1645.61,369.117 1645.94,369.617 1646.5,370C 1573.17,370.5 1499.83,370.667 1426.5,370.5C 1426.57,368.973 1425.91,367.973 1424.5,367.5C 1424.57,365.973 1423.91,364.973 1422.5,364.5C 1422.5,363.833 1422.17,363.5 1421.5,363.5C 1421.57,361.973 1420.91,360.973 1419.5,360.5C 1419.57,358.973 1418.91,357.973 1417.5,357.5C 1416.97,355.77 1415.97,354.436 1414.5,353.5C 1414.57,351.973 1413.91,350.973 1412.5,350.5C 1412.5,349.833 1412.17,349.5 1411.5,349.5C 1411.57,347.973 1410.91,346.973 1409.5,346.5C 1408.97,344.77 1407.97,343.436 1406.5,342.5C 1406.26,340.596 1405.26,339.262 1403.5,338.5C 1403.57,336.973 1402.91,335.973 1401.5,335.5C 1401.5,334.833 1401.17,334.5 1400.5,334.5C 1400.57,332.973 1399.91,331.973 1398.5,331.5C 1398.5,330.833 1398.17,330.5 1397.5,330.5C 1397.26,328.596 1396.26,327.262 1394.5,326.5C 1394.26,324.596 1393.26,323.262 1391.5,322.5C 1388.57,317.235 1384.9,312.568 1380.5,308.5C 1380.26,306.596 1379.26,305.262 1377.5,304.5C 1377.5,303.833 1377.17,303.5 1376.5,303.5C 1376.26,301.596 1375.26,300.262 1373.5,299.5C 1373.5,298.833 1373.17,298.5 1372.5,298.5C 1372.26,296.596 1371.26,295.262 1369.5,294.5C 1369.5,293.833 1369.17,293.5 1368.5,293.5C 1368.26,291.596 1367.26,290.262 1365.5,289.5C 1365.17,288.5 1364.5,287.833 1363.5,287.5C 1363.26,285.596 1362.26,284.262 1360.5,283.5C 1356.85,278.514 1352.85,273.847 1348.5,269.5C 1348.57,267.973 1347.91,266.973 1346.5,266.5C 1345.5,264.833 1344.17,263.5 1342.5,262.5C 1342.57,260.973 1341.91,259.973 1340.5,259.5C 1334.17,251.842 1327.51,244.508 1320.5,237.5C 1320.26,235.596 1319.26,234.262 1317.5,233.5C 1315.83,231.167 1313.83,229.167 1311.5,227.5C 1310.92,225.251 1309.59,223.585 1307.5,222.5C 1305.17,219.5 1302.5,216.833 1299.5,214.5C 1298.58,211.911 1296.91,209.911 1294.5,208.5C 1257.75,169.078 1219.41,131.411 1179.5,95.5 Z M 1026.5,145.5 C 1027.5,220.331 1027.83,295.331 1027.5,370.5C 955.665,370.833 883.998,370.499 812.5,369.5C 876.45,288.206 947.784,213.54 1026.5,145.5 Z M 1111.5,145.5 C 1115.54,150.54 1120.21,154.873 1125.5,158.5C 1126.26,160.262 1127.6,161.262 1129.5,161.5C 1132.17,164.833 1135.17,167.833 1138.5,170.5C 1138.97,171.906 1139.97,172.573 1141.5,172.5C 1143.5,175.167 1145.83,177.5 1148.5,179.5C 1149.91,181.914 1151.91,183.581 1154.5,184.5C 1159.17,189.833 1164.17,194.833 1169.5,199.5C 1169.97,200.906 1170.97,201.573 1172.5,201.5C 1227.26,254.239 1277.93,310.239 1324.5,369.5C 1253,370.499 1181.34,370.833 1109.5,370.5C 1108.84,295.159 1109.5,220.159 1111.5,145.5 Z M 2010.5,463.5 C 2010.97,464.906 2011.97,465.573 2013.5,465.5C 2016.13,467.153 2018.8,468.819 2021.5,470.5C 2021.97,471.906 2022.97,472.573 2024.5,472.5C 2045.23,489.948 2057.06,512.282 2060,539.5C 2060.67,723.167 2060.67,906.833 2060,1090.5C 2058.39,1105.49 2053.89,1119.49 2046.5,1132.5C 2045.09,1132.97 2044.43,1133.97 2044.5,1135.5C 2042.74,1136.26 2041.74,1137.6 2041.5,1139.5C 2037.19,1144.14 2032.86,1148.81 2028.5,1153.5C 2026.6,1153.74 2025.26,1154.74 2024.5,1156.5C 2023.83,1156.5 2023.5,1156.83 2023.5,1157.5C 2021.97,1157.43 2020.97,1158.09 2020.5,1159.5C 2019.29,1159.93 2018.29,1160.6 2017.5,1161.5C 2015.97,1161.43 2014.97,1162.09 2014.5,1163.5C 2003.77,1169.02 1992.43,1172.86 1980.5,1175C 1372.5,1175.67 764.5,1175.67 156.5,1175C 133.523,1171.01 114.19,1160.51 98.5,1143.5C 98.2624,1141.6 97.2624,1140.26 95.5,1139.5C 94.9744,1137.77 93.9744,1136.44 92.5,1135.5C 92.573,1133.97 91.9063,1132.97 90.5,1132.5C 83.1078,1119.49 78.6078,1105.49 77,1090.5C 76.3333,906.833 76.3333,723.167 77,539.5C 83.8217,491.012 111.322,462.512 159.5,454C 765.5,453.333 1371.5,453.333 1977.5,454C 1988.96,455.654 1999.96,458.821 2010.5,463.5 Z M 1286.5,706.5 C 1294.57,709.24 1299.4,714.906 1301,723.5C 1303.2,734.243 1302.03,744.576 1297.5,754.5C 1295.5,755.833 1293.83,757.5 1292.5,759.5C 1289.57,760.698 1286.57,761.698 1283.5,762.5C 1267.17,762.5 1250.83,762.5 1234.5,762.5C 1234.5,743.833 1234.5,725.167 1234.5,706.5C 1251.83,706.5 1269.17,706.5 1286.5,706.5 Z M 1291.5,854.5 C 1300.69,855.532 1307.19,860.198 1311,868.5C 1314.43,880.896 1314.27,893.23 1310.5,905.5C 1309.09,905.973 1308.43,906.973 1308.5,908.5C 1306.5,909.833 1304.83,911.5 1303.5,913.5C 1299.67,915.164 1295.67,916.331 1291.5,917C 1272.5,917.5 1253.5,917.667 1234.5,917.5C 1234.5,896.5 1234.5,875.5 1234.5,854.5C 1253.5,854.5 1272.5,854.5 1291.5,854.5 Z M 490.5,1259.5 C 559.332,1258.33 628.332,1258.17 697.5,1259C 698.044,1259.72 698.711,1260.22 699.5,1260.5C 749.132,1331.17 805.466,1396.5 868.5,1456.5C 868.973,1457.91 869.973,1458.57 871.5,1458.5C 879.866,1467.87 888.866,1476.53 898.5,1484.5C 899.911,1486.91 901.911,1488.58 904.5,1489.5C 906.167,1491.83 908.167,1493.83 910.5,1495.5C 911.585,1497.59 913.251,1498.92 915.5,1499.5C 916.833,1501.5 918.5,1503.17 920.5,1504.5C 921.262,1506.26 922.596,1507.26 924.5,1507.5C 928.539,1512.54 933.206,1516.87 938.5,1520.5C 938.973,1521.91 939.973,1522.57 941.5,1522.5C 944.558,1526.52 948.225,1529.86 952.5,1532.5C 951.791,1533.4 950.791,1533.74 949.5,1533.5C 861.013,1518.41 778.013,1488.41 700.5,1443.5C 699.71,1442.6 698.71,1441.93 697.5,1441.5C 643.837,1409.31 594.504,1371.31 549.5,1327.5C 549.573,1325.97 548.906,1324.97 547.5,1324.5C 546.5,1322.83 545.167,1321.5 543.5,1320.5C 542.5,1318.83 541.167,1317.5 539.5,1316.5C 533.472,1310.14 527.472,1303.81 521.5,1297.5C 520.92,1295.25 519.587,1293.58 517.5,1292.5C 516.833,1291.17 515.833,1290.17 514.5,1289.5C 514.262,1287.6 513.262,1286.26 511.5,1285.5C 511.167,1284.5 510.5,1283.83 509.5,1283.5C 509.262,1281.6 508.262,1280.26 506.5,1279.5C 506.167,1278.5 505.5,1277.83 504.5,1277.5C 504.262,1275.6 503.262,1274.26 501.5,1273.5C 501.5,1272.83 501.167,1272.5 500.5,1272.5C 500.262,1270.6 499.262,1269.26 497.5,1268.5C 495.518,1265.19 493.185,1262.19 490.5,1259.5 Z M 1027.5,1258.5 C 1027.83,1335 1027.5,1411.34 1026.5,1487.5C 972.4,1442.41 920.734,1394.41 871.5,1343.5C 870.581,1340.91 868.914,1338.91 866.5,1337.5C 859.173,1328.84 851.507,1320.51 843.5,1312.5C 843.573,1310.97 842.906,1309.97 841.5,1309.5C 840.167,1307.5 838.5,1305.83 836.5,1304.5C 836.573,1302.97 835.906,1301.97 834.5,1301.5C 833.5,1299.83 832.167,1298.5 830.5,1297.5C 830.262,1295.6 829.262,1294.26 827.5,1293.5C 827.167,1292.5 826.5,1291.83 825.5,1291.5C 825.262,1289.6 824.262,1288.26 822.5,1287.5C 822.167,1286.5 821.5,1285.83 820.5,1285.5C 820.262,1283.6 819.262,1282.26 817.5,1281.5C 812.182,1274.19 806.516,1267.19 800.5,1260.5C 875.826,1258.5 951.493,1257.84 1027.5,1258.5 Z M 1109.5,1258.5 C 1185.51,1257.84 1261.17,1258.5 1336.5,1260.5C 1333.15,1263.85 1330.15,1267.52 1327.5,1271.5C 1325.74,1272.26 1324.74,1273.6 1324.5,1275.5C 1321.8,1277.23 1319.8,1279.57 1318.5,1282.5C 1316.74,1283.26 1315.74,1284.6 1315.5,1286.5C 1314.5,1286.83 1313.83,1287.5 1313.5,1288.5C 1311.74,1289.26 1310.74,1290.6 1310.5,1292.5C 1308.83,1293.5 1307.5,1294.83 1306.5,1296.5C 1305.09,1296.97 1304.43,1297.97 1304.5,1299.5C 1302.83,1300.5 1301.5,1301.83 1300.5,1303.5C 1299.09,1303.97 1298.43,1304.97 1298.5,1306.5C 1291.16,1313.84 1284.16,1321.51 1277.5,1329.5C 1275.41,1330.58 1274.08,1332.25 1273.5,1334.5C 1270.5,1336.83 1267.83,1339.5 1265.5,1342.5C 1263.09,1343.91 1261.42,1345.91 1260.5,1348.5C 1256.83,1351.5 1253.5,1354.83 1250.5,1358.5C 1247.5,1360.83 1244.83,1363.5 1242.5,1366.5C 1231.17,1377.17 1220.17,1388.17 1209.5,1399.5C 1205.83,1402.5 1202.5,1405.83 1199.5,1409.5C 1195.9,1411.43 1192.9,1414.1 1190.5,1417.5C 1188.17,1419.17 1186.17,1421.17 1184.5,1423.5C 1181.57,1424.76 1179.24,1426.76 1177.5,1429.5C 1175.5,1430.83 1173.83,1432.5 1172.5,1434.5C 1169.91,1435.42 1167.91,1437.09 1166.5,1439.5C 1164.83,1440.5 1163.5,1441.83 1162.5,1443.5C 1160.25,1444.08 1158.58,1445.41 1157.5,1447.5C 1156.17,1448.17 1155.17,1449.17 1154.5,1450.5C 1151.91,1451.42 1149.91,1453.09 1148.5,1455.5C 1147.17,1456.17 1146.17,1457.17 1145.5,1458.5C 1143.25,1459.08 1141.58,1460.41 1140.5,1462.5C 1139.5,1462.83 1138.83,1463.5 1138.5,1464.5C 1136.25,1465.08 1134.58,1466.41 1133.5,1468.5C 1132.5,1468.83 1131.83,1469.5 1131.5,1470.5C 1129.25,1471.08 1127.58,1472.41 1126.5,1474.5C 1125.5,1474.83 1124.83,1475.5 1124.5,1476.5C 1122.6,1476.74 1121.26,1477.74 1120.5,1479.5C 1119.5,1479.83 1118.83,1480.5 1118.5,1481.5C 1116.25,1482.08 1114.58,1483.41 1113.5,1485.5C 1112.83,1485.5 1112.5,1485.83 1112.5,1486.5C 1111.5,1486.41 1110.67,1486.75 1110,1487.5C 1109.5,1411.17 1109.33,1334.83 1109.5,1258.5 Z M 1439.5,1258.5 C 1509,1258.17 1578.34,1258.5 1647.5,1259.5C 1644.82,1262.19 1642.48,1265.19 1640.5,1268.5C 1638.74,1269.26 1637.74,1270.6 1637.5,1272.5C 1634.8,1274.23 1632.8,1276.57 1631.5,1279.5C 1629.74,1280.26 1628.74,1281.6 1628.5,1283.5C 1627.5,1283.83 1626.83,1284.5 1626.5,1285.5C 1624.74,1286.26 1623.74,1287.6 1623.5,1289.5C 1621.5,1290.83 1619.83,1292.5 1618.5,1294.5C 1617.09,1294.97 1616.43,1295.97 1616.5,1297.5C 1614.17,1299.17 1612.17,1301.17 1610.5,1303.5C 1608.74,1304.26 1607.74,1305.6 1607.5,1307.5C 1605.17,1309.17 1603.17,1311.17 1601.5,1313.5C 1599.5,1314.83 1597.83,1316.5 1596.5,1318.5C 1587.83,1326.5 1579.5,1334.83 1571.5,1343.5C 1569.17,1345.17 1567.17,1347.17 1565.5,1349.5C 1562.57,1350.76 1560.24,1352.76 1558.5,1355.5C 1557.17,1356.17 1556.17,1357.17 1555.5,1358.5C 1553.25,1359.08 1551.58,1360.41 1550.5,1362.5C 1549.17,1363.17 1548.17,1364.17 1547.5,1365.5C 1545.25,1366.08 1543.58,1367.41 1542.5,1369.5C 1539.57,1370.8 1537.23,1372.8 1535.5,1375.5C 1533.6,1375.74 1532.26,1376.74 1531.5,1378.5C 1527.52,1381.15 1523.85,1384.15 1520.5,1387.5C 1518.6,1387.74 1517.26,1388.74 1516.5,1390.5C 1510.86,1394.15 1505.53,1398.15 1500.5,1402.5C 1498.6,1402.74 1497.26,1403.74 1496.5,1405.5C 1491.89,1408.12 1487.55,1411.12 1483.5,1414.5C 1481.97,1414.43 1480.97,1415.09 1480.5,1416.5C 1478.97,1416.43 1477.97,1417.09 1477.5,1418.5C 1475.2,1419.47 1473.2,1420.81 1471.5,1422.5C 1469.97,1422.43 1468.97,1423.09 1468.5,1424.5C 1466.97,1424.43 1465.97,1425.09 1465.5,1426.5C 1456.16,1432.17 1446.83,1437.84 1437.5,1443.5C 1435.97,1443.43 1434.97,1444.09 1434.5,1445.5C 1432.85,1445.66 1431.51,1446.33 1430.5,1447.5C 1428.97,1447.43 1427.97,1448.09 1427.5,1449.5C 1425.18,1449.99 1423.18,1450.99 1421.5,1452.5C 1419.97,1452.43 1418.97,1453.09 1418.5,1454.5C 1345.59,1493.58 1268.26,1519.91 1186.5,1533.5C 1185.51,1533.67 1184.84,1533.34 1184.5,1532.5C 1271.49,1460.01 1349.33,1379.01 1418,1289.5C 1425.67,1279.49 1432.84,1269.15 1439.5,1258.5 Z"/></g>
<g><path style="opacity:0.235" fill="#91763c" d="M 954.5,94.5 C 956.628,93.3709 958.961,93.2042 961.5,94C 960.584,94.2784 959.918,94.7784 959.5,95.5C 959.167,95.5 958.833,95.5 958.5,95.5C 957.432,94.5655 956.099,94.2322 954.5,94.5 Z"/></g>
<g><path style="opacity:0.937" fill="#af8e48" d="M 1178.5,95.5 C 1176.66,95.3605 1176.33,94.6939 1177.5,93.5C 1178.3,93.9569 1178.63,94.6236 1178.5,95.5 Z"/></g>
<g><path style="opacity:0.996" fill="#bc994d" d="M 958.5,95.5 C 958.833,95.5 959.167,95.5 959.5,95.5C 958.415,97.5869 956.749,98.9202 954.5,99.5C 955.5,97.8333 956.833,96.5 958.5,95.5 Z"/></g>
<g><path style="opacity:0.984" fill="#ad8d47" d="M 673.5,103.5 C 673.027,104.906 672.027,105.573 670.5,105.5C 670.973,104.094 671.973,103.427 673.5,103.5 Z"/></g>
<g><path style="opacity:0.996" fill="#b7954b" d="M 950.5,103.5 C 948.431,106.573 945.764,108.906 942.5,110.5C 944.569,107.427 947.236,105.094 950.5,103.5 Z"/></g>
<g><path style="opacity:0.984" fill="#ac8c46" d="M 654.5,114.5 C 654.027,115.906 653.027,116.573 651.5,116.5C 651.973,115.094 652.973,114.427 654.5,114.5 Z"/></g>
<g><path style="opacity:0.965" fill="#b19049" d="M 937.5,115.5 C 935.431,118.573 932.764,120.906 929.5,122.5C 931.569,119.427 934.236,117.094 937.5,115.5 Z"/></g>
<g><path style="opacity:0.984" fill="#ac8c46" d="M 649.5,117.5 C 649.027,118.906 648.027,119.573 646.5,119.5C 646.973,118.094 647.973,117.427 649.5,117.5 Z"/></g>
<g><path style="opacity:0.984" fill="#ab8b46" d="M 636.5,125.5 C 636.027,126.906 635.027,127.573 633.5,127.5C 633.973,126.094 634.973,125.427 636.5,125.5 Z"/></g>
<g><path style="opacity:0.996" fill="#b8964c" d="M 921.5,130.5 C 918.105,134.898 914.105,138.564 909.5,141.5C 912.895,137.102 916.895,133.436 921.5,130.5 Z"/></g>
<g><path style="opacity:0.937" fill="#bc994d" d="M 1027.5,371.5 C 1027.5,371.167 1027.5,370.833 1027.5,370.5C 1027.83,295.331 1027.5,220.331 1026.5,145.5C 1026.37,144.624 1026.7,143.957 1027.5,143.5C 1028.83,219.666 1028.83,295.666 1027.5,371.5 Z"/></g>
<g><path style="opacity:0.937" fill="#bc994d" d="M 1111.5,145.5 C 1109.5,220.159 1108.84,295.159 1109.5,370.5C 1109.5,370.833 1109.5,371.167 1109.5,371.5C 1108.17,295.666 1108.17,219.666 1109.5,143.5C 1110.52,143.855 1111.19,144.522 1111.5,145.5 Z"/></g>
<g><path style="opacity:0.984" fill="#ab8b46" d="M 603.5,147.5 C 603.027,148.906 602.027,149.573 600.5,149.5C 600.973,148.094 601.973,147.427 603.5,147.5 Z"/></g>
<g><path style="opacity:0.984" fill="#af8e47" d="M 596.5,152.5 C 596.027,153.906 595.027,154.573 593.5,154.5C 593.973,153.094 594.973,152.427 596.5,152.5 Z"/></g>
<g><path style="opacity:0.984" fill="#a98945" d="M 1125.5,158.5 C 1127.4,158.738 1128.74,159.738 1129.5,161.5C 1127.6,161.262 1126.26,160.262 1125.5,158.5 Z"/></g>
<g><path style="opacity:0.965" fill="#af8e48" d="M 585.5,160.5 C 584.738,162.262 583.404,163.262 581.5,163.5C 582.262,161.738 583.596,160.738 585.5,160.5 Z"/></g>
<g><path style="opacity:0.965" fill="#af8e48" d="M 581.5,163.5 C 580.738,165.262 579.404,166.262 577.5,166.5C 578.262,164.738 579.596,163.738 581.5,163.5 Z"/></g>
<g><path style="opacity:0.965" fill="#ae8e47" d="M 577.5,166.5 C 576.738,168.262 575.404,169.262 573.5,169.5C 574.262,167.738 575.596,166.738 577.5,166.5 Z"/></g>
<g><path style="opacity:0.965" fill="#ac8c47" d="M 890.5,160.5 C 885.5,166.167 880.167,171.5 874.5,176.5C 878.833,170.167 884.167,164.833 890.5,160.5 Z"/></g>
<g><path style="opacity:0.859" fill="#a08241" d="M 1138.5,170.5 C 1140.03,170.427 1141.03,171.094 1141.5,172.5C 1139.97,172.573 1138.97,171.906 1138.5,170.5 Z"/></g>
<g><path style="opacity:0.965" fill="#b08f48" d="M 568.5,173.5 C 567.738,175.262 566.404,176.262 564.5,176.5C 565.262,174.738 566.596,173.738 568.5,173.5 Z"/></g>
<g><path style="opacity:0.996" fill="#a68744" d="M 1148.5,179.5 C 1151.09,180.419 1153.09,182.086 1154.5,184.5C 1151.91,183.581 1149.91,181.914 1148.5,179.5 Z"/></g>
<g><path style="opacity:0.965" fill="#b08f48" d="M 558.5,181.5 C 557.738,183.262 556.404,184.262 554.5,184.5C 555.262,182.738 556.596,181.738 558.5,181.5 Z"/></g>
<g><path style="opacity:0.996" fill="#b8964b" d="M 553.5,185.5 C 552.415,187.587 550.749,188.92 548.5,189.5C 549.585,187.413 551.251,186.08 553.5,185.5 Z"/></g>
<g><path style="opacity:0.996" fill="#b7954b" d="M 547.5,190.5 C 546.415,192.587 544.749,193.92 542.5,194.5C 543.585,192.413 545.251,191.08 547.5,190.5 Z"/></g>
<g><path style="opacity:0.753" fill="#9e8041" d="M 1455.5,196.5 C 1457.03,196.427 1458.03,197.094 1458.5,198.5C 1456.97,198.573 1455.97,197.906 1455.5,196.5 Z"/></g>
<g><path style="opacity:0.996" fill="#bc9a4d" d="M 856.5,194.5 C 855.5,197.5 853.5,199.5 850.5,200.5C 852.167,198.167 854.167,196.167 856.5,194.5 Z"/></g>
<g><path style="opacity:0.996" fill="#b9974c" d="M 540.5,196.5 C 539.415,198.587 537.749,199.92 535.5,200.5C 536.585,198.413 538.251,197.08 540.5,196.5 Z"/></g>
<g><path style="opacity:0.965" fill="#a58644" d="M 1169.5,199.5 C 1171.03,199.427 1172.03,200.094 1172.5,201.5C 1170.97,201.573 1169.97,200.906 1169.5,199.5 Z"/></g>
<g><path style="opacity:0.965" fill="#a98945" d="M 850.5,200.5 C 849.581,203.089 847.914,205.089 845.5,206.5C 846.419,203.911 848.086,201.911 850.5,200.5 Z"/></g>
<g><path style="opacity:0.808" fill="#a18242" d="M 1466.5,203.5 C 1468.03,203.427 1469.03,204.094 1469.5,205.5C 1467.97,205.573 1466.97,204.906 1466.5,203.5 Z"/></g>
<g><path style="opacity:0.996" fill="#b9974c" d="M 532.5,203.5 C 531.415,205.587 529.749,206.92 527.5,207.5C 528.585,205.413 530.251,204.08 532.5,203.5 Z"/></g>
<g><path style="opacity:0.984" fill="#a48543" d="M 1294.5,208.5 C 1296.91,209.911 1298.58,211.911 1299.5,214.5C 1297.09,213.089 1295.42,211.089 1294.5,208.5 Z"/></g>
<g><path style="opacity:0.808" fill="#a18242" d="M 1481.5,213.5 C 1483.03,213.427 1484.03,214.094 1484.5,215.5C 1482.97,215.573 1481.97,214.906 1481.5,213.5 Z"/></g>
<g><path style="opacity:0.996" fill="#b8964b" d="M 523.5,211.5 C 521.761,214.243 519.427,216.243 516.5,217.5C 518.239,214.757 520.573,212.757 523.5,211.5 Z"/></g>
<g><path style="opacity:0.902" fill="#a88845" d="M 1484.5,215.5 C 1486.03,215.427 1487.03,216.094 1487.5,217.5C 1485.97,217.573 1484.97,216.906 1484.5,215.5 Z"/></g>
<g><path style="opacity:0.965" fill="#aa8a46" d="M 835.5,216.5 C 834.92,218.749 833.587,220.415 831.5,221.5C 832.08,219.251 833.413,217.585 835.5,216.5 Z"/></g>
<g><path style="opacity:0.937" fill="#b08f48" d="M 1487.5,217.5 C 1489.03,217.427 1490.03,218.094 1490.5,219.5C 1488.97,219.573 1487.97,218.906 1487.5,217.5 Z"/></g>
<g><path style="opacity:0.808" fill="#9e8040" d="M 1491.5,220.5 C 1493.03,220.427 1494.03,221.094 1494.5,222.5C 1492.97,222.573 1491.97,221.906 1491.5,220.5 Z"/></g>
<g><path style="opacity:0.984" fill="#a58643" d="M 1307.5,222.5 C 1309.59,223.585 1310.92,225.251 1311.5,227.5C 1309.41,226.415 1308.08,224.749 1307.5,222.5 Z"/></g>
<g><path style="opacity:0.937" fill="#af8e48" d="M 1494.5,222.5 C 1496.03,222.427 1497.03,223.094 1497.5,224.5C 1495.97,224.573 1494.97,223.906 1494.5,222.5 Z"/></g>
<g><path style="opacity:0.859" fill="#a18342" d="M 1498.5,225.5 C 1500.03,225.427 1501.03,226.094 1501.5,227.5C 1499.97,227.573 1498.97,226.906 1498.5,225.5 Z"/></g>
<g><path style="opacity:0.965" fill="#aa8b46" d="M 824.5,228.5 C 823.92,230.749 822.587,232.415 820.5,233.5C 821.08,231.251 822.413,229.585 824.5,228.5 Z"/></g>
<g><path style="opacity:0.984" fill="#a98945" d="M 1317.5,233.5 C 1319.26,234.262 1320.26,235.596 1320.5,237.5C 1318.74,236.738 1317.74,235.404 1317.5,233.5 Z"/></g>
<g><path style="opacity:0.996" fill="#af8f48" d="M 1513.5,236.5 C 1515.4,236.738 1516.74,237.738 1517.5,239.5C 1515.6,239.262 1514.26,238.262 1513.5,236.5 Z"/></g>
<g><path style="opacity:0.965" fill="#af8e48" d="M 815.5,238.5 C 815.262,240.404 814.262,241.738 812.5,242.5C 812.738,240.596 813.738,239.262 815.5,238.5 Z"/></g>
<g><path style="opacity:0.937" fill="#ae8d47" d="M 1518.5,240.5 C 1520.03,240.427 1521.03,241.094 1521.5,242.5C 1519.97,242.573 1518.97,241.906 1518.5,240.5 Z"/></g>
<g><path style="opacity:0.996" fill="#bc994d" d="M 510.5,223.5 C 502.446,232.555 493.779,240.889 484.5,248.5C 492.554,239.445 501.221,231.111 510.5,223.5 Z"/></g>
<g><path style="opacity:0.965" fill="#a38543" d="M 806.5,248.5 C 806.573,250.027 805.906,251.027 804.5,251.5C 804.427,249.973 805.094,248.973 806.5,248.5 Z"/></g>
<g><path style="opacity:0.965" fill="#aa8a46" d="M 484.5,248.5 C 483.243,251.427 481.243,253.761 478.5,255.5C 479.757,252.573 481.757,250.239 484.5,248.5 Z"/></g>
<g><path style="opacity:0.996" fill="#aa8a46" d="M 1533.5,252.5 C 1535.4,252.738 1536.74,253.738 1537.5,255.5C 1535.6,255.262 1534.26,254.262 1533.5,252.5 Z"/></g>
<g><path style="opacity:0.996" fill="#a58644" d="M 1655.5,251.5 C 1658.24,253.239 1660.24,255.573 1661.5,258.5C 1658.76,256.761 1656.76,254.427 1655.5,251.5 Z"/></g>
<g><path style="opacity:0.965" fill="#a38543" d="M 799.5,256.5 C 799.573,258.027 798.906,259.027 797.5,259.5C 797.427,257.973 798.094,256.973 799.5,256.5 Z"/></g>
<g><path style="opacity:0.996" fill="#ab8b46" d="M 1539.5,257.5 C 1541.4,257.738 1542.74,258.738 1543.5,260.5C 1541.6,260.262 1540.26,259.262 1539.5,257.5 Z"/></g>
<g><path style="opacity:0.965" fill="#a68744" d="M 1340.5,259.5 C 1341.91,259.973 1342.57,260.973 1342.5,262.5C 1341.09,262.027 1340.43,261.027 1340.5,259.5 Z"/></g>
<g><path style="opacity:0.965" fill="#a38543" d="M 793.5,263.5 C 793.573,265.027 792.906,266.027 791.5,266.5C 791.427,264.973 792.094,263.973 793.5,263.5 Z"/></g>
<g><path style="opacity:0.965" fill="#ac8b46" d="M 469.5,264.5 C 468.92,266.749 467.587,268.415 465.5,269.5C 466.08,267.251 467.413,265.585 469.5,264.5 Z"/></g>
<g><path style="opacity:0.965" fill="#a48543" d="M 1346.5,266.5 C 1347.91,266.973 1348.57,267.973 1348.5,269.5C 1347.09,269.027 1346.43,268.027 1346.5,266.5 Z"/></g>
<g><path style="opacity:0.984" fill="#a98945" d="M 1669.5,266.5 C 1671.26,267.262 1672.26,268.596 1672.5,270.5C 1670.74,269.738 1669.74,268.404 1669.5,266.5 Z"/></g>
<g><path style="opacity:0.984" fill="#a98945" d="M 1555.5,271.5 C 1557.4,271.738 1558.74,272.738 1559.5,274.5C 1557.6,274.262 1556.26,273.262 1555.5,271.5 Z"/></g>
<g><path style="opacity:0.859" fill="#a08241" d="M 787.5,270.5 C 787.573,272.027 786.906,273.027 785.5,273.5C 785.427,271.973 786.094,270.973 787.5,270.5 Z"/></g>
<g><path style="opacity:0.984" fill="#ab8b46" d="M 460.5,274.5 C 460.262,276.404 459.262,277.738 457.5,278.5C 457.738,276.596 458.738,275.262 460.5,274.5 Z"/></g>
<g><path style="opacity:0.996" fill="#ae8d47" d="M 783.5,275.5 C 783.262,277.404 782.262,278.738 780.5,279.5C 780.738,277.596 781.738,276.262 783.5,275.5 Z"/></g>
<g><path style="opacity:0.996" fill="#a78844" d="M 1566.5,281.5 C 1569.43,282.757 1571.76,284.757 1573.5,287.5C 1570.57,286.243 1568.24,284.243 1566.5,281.5 Z"/></g>
<g><path style="opacity:0.996" fill="#ae8d47" d="M 778.5,281.5 C 778.262,283.404 777.262,284.738 775.5,285.5C 775.738,283.596 776.738,282.262 778.5,281.5 Z"/></g>
<g><path style="opacity:0.996" fill="#ad8d47" d="M 1360.5,283.5 C 1362.26,284.262 1363.26,285.596 1363.5,287.5C 1361.74,286.738 1360.74,285.404 1360.5,283.5 Z"/></g>
<g><path style="opacity:0.859" fill="#a08241" d="M 452.5,283.5 C 452.573,285.027 451.906,286.027 450.5,286.5C 450.427,284.973 451.094,283.973 452.5,283.5 Z"/></g>
<g><path style="opacity:0.859" fill="#a08241" d="M 1685.5,284.5 C 1686.91,284.973 1687.57,285.973 1687.5,287.5C 1686.09,287.027 1685.43,286.027 1685.5,284.5 Z"/></g>
<g><path style="opacity:0.996" fill="#b08f48" d="M 448.5,288.5 C 448.262,290.404 447.262,291.738 445.5,292.5C 445.738,290.596 446.738,289.262 448.5,288.5 Z"/></g>
<g><path style="opacity:0.859" fill="#a08241" d="M 772.5,288.5 C 772.573,290.027 771.906,291.027 770.5,291.5C 770.427,289.973 771.094,288.973 772.5,288.5 Z"/></g>
<g><path style="opacity:0.996" fill="#ac8c47" d="M 1365.5,289.5 C 1367.26,290.262 1368.26,291.596 1368.5,293.5C 1366.74,292.738 1365.74,291.404 1365.5,289.5 Z"/></g>
<g><path style="opacity:0.996" fill="#ad8d47" d="M 1689.5,289.5 C 1691.26,290.262 1692.26,291.596 1692.5,293.5C 1690.74,292.738 1689.74,291.404 1689.5,289.5 Z"/></g>
<g><path style="opacity:0.996" fill="#b08f48" d="M 769.5,292.5 C 769.262,294.404 768.262,295.738 766.5,296.5C 766.738,294.596 767.738,293.262 769.5,292.5 Z"/></g>
<g><path style="opacity:0.996" fill="#b19048" d="M 443.5,294.5 C 443.262,296.404 442.262,297.738 440.5,298.5C 440.738,296.596 441.738,295.262 443.5,294.5 Z"/></g>
<g><path style="opacity:0.996" fill="#af8e48" d="M 1369.5,294.5 C 1371.26,295.262 1372.26,296.596 1372.5,298.5C 1370.74,297.738 1369.74,296.404 1369.5,294.5 Z"/></g>
<g><path style="opacity:0.996" fill="#ad8d47" d="M 1694.5,295.5 C 1696.26,296.262 1697.26,297.596 1697.5,299.5C 1695.74,298.738 1694.74,297.404 1694.5,295.5 Z"/></g>
<g><path style="opacity:0.996" fill="#b08f48" d="M 1373.5,299.5 C 1375.26,300.262 1376.26,301.596 1376.5,303.5C 1374.74,302.738 1373.74,301.404 1373.5,299.5 Z"/></g>
<g><path style="opacity:0.996" fill="#ab8c46" d="M 438.5,300.5 C 438.262,302.404 437.262,303.738 435.5,304.5C 435.738,302.596 436.738,301.262 438.5,300.5 Z"/></g>
<g><path style="opacity:0.996" fill="#ae8e47" d="M 1377.5,304.5 C 1379.26,305.262 1380.26,306.596 1380.5,308.5C 1378.74,307.738 1377.74,306.404 1377.5,304.5 Z"/></g>
<g><path style="opacity:0.996" fill="#ad8d47" d="M 434.5,305.5 C 434.262,307.404 433.262,308.738 431.5,309.5C 431.738,307.596 432.738,306.262 434.5,305.5 Z"/></g>
<g><path style="opacity:0.996" fill="#b19048" d="M 757.5,307.5 C 757.262,309.404 756.262,310.738 754.5,311.5C 754.738,309.596 755.738,308.262 757.5,307.5 Z"/></g>
<g><path style="opacity:0.984" fill="#ab8b46" d="M 1707.5,311.5 C 1708.91,311.973 1709.57,312.973 1709.5,314.5C 1708.09,314.027 1707.43,313.027 1707.5,311.5 Z"/></g>
<g><path style="opacity:0.996" fill="#ae8d47" d="M 753.5,312.5 C 753.262,314.404 752.262,315.738 750.5,316.5C 750.738,314.596 751.738,313.262 753.5,312.5 Z"/></g>
<g><path style="opacity:0.996" fill="#b19048" d="M 427.5,314.5 C 427.262,316.404 426.262,317.738 424.5,318.5C 424.738,316.596 425.738,315.262 427.5,314.5 Z"/></g>
<g><path style="opacity:0.996" fill="#ae8d47" d="M 1710.5,315.5 C 1712.26,316.262 1713.26,317.596 1713.5,319.5C 1711.74,318.738 1710.74,317.404 1710.5,315.5 Z"/></g>
<g><path style="opacity:0.984" fill="#ab8b46" d="M 749.5,317.5 C 749.573,319.027 748.906,320.027 747.5,320.5C 747.427,318.973 748.094,317.973 749.5,317.5 Z"/></g>
<g><path style="opacity:0.937" fill="#ae8e47" d="M 423.5,319.5 C 423.573,321.027 422.906,322.027 421.5,322.5C 421.427,320.973 422.094,319.973 423.5,319.5 Z"/></g>
<g><path style="opacity:0.996" fill="#ae8e47" d="M 1391.5,322.5 C 1393.26,323.262 1394.26,324.596 1394.5,326.5C 1392.74,325.738 1391.74,324.404 1391.5,322.5 Z"/></g>
<g><path style="opacity:0.996" fill="#af8f48" d="M 743.5,325.5 C 743.262,327.404 742.262,328.738 740.5,329.5C 740.738,327.596 741.738,326.262 743.5,325.5 Z"/></g>
<g><path style="opacity:0.902" fill="#a78844" d="M 1717.5,324.5 C 1718.91,324.973 1719.57,325.973 1719.5,327.5C 1718.09,327.027 1717.43,326.027 1717.5,324.5 Z"/></g>
<g><path style="opacity:0.996" fill="#af8f48" d="M 1394.5,326.5 C 1396.26,327.262 1397.26,328.596 1397.5,330.5C 1395.74,329.738 1394.74,328.404 1394.5,326.5 Z"/></g>
<g><path style="opacity:0.937" fill="#af8e48" d="M 417.5,327.5 C 417.573,329.027 416.906,330.027 415.5,330.5C 415.427,328.973 416.094,327.973 417.5,327.5 Z"/></g>
<g><path style="opacity:0.902" fill="#a78844" d="M 1720.5,328.5 C 1721.91,328.973 1722.57,329.973 1722.5,331.5C 1721.09,331.027 1720.43,330.027 1720.5,328.5 Z"/></g>
<g><path style="opacity:0.902" fill="#a78844" d="M 739.5,330.5 C 739.573,332.027 738.906,333.027 737.5,333.5C 737.427,331.973 738.094,330.973 739.5,330.5 Z"/></g>
<g><path style="opacity:0.937" fill="#ae8e47" d="M 414.5,331.5 C 414.573,333.027 413.906,334.027 412.5,334.5C 412.427,332.973 413.094,331.973 414.5,331.5 Z"/></g>
<g><path style="opacity:0.902" fill="#a78844" d="M 1398.5,331.5 C 1399.91,331.973 1400.57,332.973 1400.5,334.5C 1399.09,334.027 1398.43,333.027 1398.5,331.5 Z"/></g>
<g><path style="opacity:0.859" fill="#a18342" d="M 1723.5,332.5 C 1724.91,332.973 1725.57,333.973 1725.5,335.5C 1724.09,335.027 1723.43,334.027 1723.5,332.5 Z"/></g>
<g><path style="opacity:0.902" fill="#a78844" d="M 736.5,334.5 C 736.573,336.027 735.906,337.027 734.5,337.5C 734.427,335.973 735.094,334.973 736.5,334.5 Z"/></g>
<g><path style="opacity:0.859" fill="#a38543" d="M 411.5,335.5 C 411.573,337.027 410.906,338.027 409.5,338.5C 409.427,336.973 410.094,335.973 411.5,335.5 Z"/></g>
<g><path style="opacity:0.859" fill="#a38543" d="M 1401.5,335.5 C 1402.91,335.973 1403.57,336.973 1403.5,338.5C 1402.09,338.027 1401.43,337.027 1401.5,335.5 Z"/></g>
<g><path style="opacity:0.996" fill="#af8f48" d="M 1403.5,338.5 C 1405.26,339.262 1406.26,340.596 1406.5,342.5C 1404.74,341.738 1403.74,340.404 1403.5,338.5 Z"/></g>
<g><path style="opacity:0.902" fill="#a78844" d="M 733.5,338.5 C 733.573,340.027 732.906,341.027 731.5,341.5C 731.427,339.973 732.094,338.973 733.5,338.5 Z"/></g>
<g><path style="opacity:0.902" fill="#aa8a46" d="M 1728.5,339.5 C 1729.91,339.973 1730.57,340.973 1730.5,342.5C 1729.09,342.027 1728.43,341.027 1728.5,339.5 Z"/></g>
<g><path style="opacity:0.902" fill="#a88845" d="M 406.5,342.5 C 406.573,344.027 405.906,345.027 404.5,345.5C 404.427,343.973 405.094,342.973 406.5,342.5 Z"/></g>
<g><path style="opacity:0.902" fill="#a78844" d="M 730.5,342.5 C 730.573,344.027 729.906,345.027 728.5,345.5C 728.427,343.973 729.094,342.973 730.5,342.5 Z"/></g>
<g><path style="opacity:0.996" fill="#ae8d47" d="M 728.5,345.5 C 728.262,347.404 727.262,348.738 725.5,349.5C 725.738,347.596 726.738,346.262 728.5,345.5 Z"/></g>
<g><path style="opacity:0.937" fill="#b08f48" d="M 404.5,345.5 C 404.573,347.027 403.906,348.027 402.5,348.5C 402.427,346.973 403.094,345.973 404.5,345.5 Z"/></g>
<g><path style="opacity:0.937" fill="#af8e48" d="M 1409.5,346.5 C 1410.91,346.973 1411.57,347.973 1411.5,349.5C 1410.09,349.027 1409.43,348.027 1409.5,346.5 Z"/></g>
<g><path style="opacity:0.859" fill="#a48543" d="M 1733.5,346.5 C 1734.91,346.973 1735.57,347.973 1735.5,349.5C 1734.09,349.027 1733.43,348.027 1733.5,346.5 Z"/></g>
<g><path style="opacity:0.937" fill="#af8e48" d="M 1735.5,349.5 C 1736.91,349.973 1737.57,350.973 1737.5,352.5C 1736.09,352.027 1735.43,351.027 1735.5,349.5 Z"/></g>
<g><path style="opacity:0.859" fill="#a38543" d="M 1412.5,350.5 C 1413.91,350.973 1414.57,351.973 1414.5,353.5C 1413.09,353.027 1412.43,352.027 1412.5,350.5 Z"/></g>
<g><path style="opacity:0.859" fill="#a48543" d="M 399.5,352.5 C 399.573,354.027 398.906,355.027 397.5,355.5C 397.427,353.973 398.094,352.973 399.5,352.5 Z"/></g>
<g><path style="opacity:0.937" fill="#b19049" d="M 1737.5,352.5 C 1738.91,352.973 1739.57,353.973 1739.5,355.5C 1738.09,355.027 1737.43,354.027 1737.5,352.5 Z"/></g>
<g><path style="opacity:0.902" fill="#a88845" d="M 722.5,353.5 C 722.573,355.027 721.906,356.027 720.5,356.5C 720.427,354.973 721.094,353.973 722.5,353.5 Z"/></g>
<g><path style="opacity:0.902" fill="#ab8b46" d="M 397.5,355.5 C 397.573,357.027 396.906,358.027 395.5,358.5C 395.427,356.973 396.094,355.973 397.5,355.5 Z"/></g>
<g><path style="opacity:0.902" fill="#a88845" d="M 1417.5,357.5 C 1418.91,357.973 1419.57,358.973 1419.5,360.5C 1418.09,360.027 1417.43,359.027 1417.5,357.5 Z"/></g>
<g><path style="opacity:0.902" fill="#ab8b46" d="M 395.5,358.5 C 395.573,360.027 394.906,361.027 393.5,361.5C 393.427,359.973 394.094,358.973 395.5,358.5 Z"/></g>
<g><path style="opacity:0.902" fill="#aa8a46" d="M 717.5,360.5 C 717.573,362.027 716.906,363.027 715.5,363.5C 715.427,361.973 716.094,360.973 717.5,360.5 Z"/></g>
<g><path style="opacity:0.937" fill="#b08f48" d="M 1419.5,360.5 C 1420.91,360.973 1421.57,361.973 1421.5,363.5C 1420.09,363.027 1419.43,362.027 1419.5,360.5 Z"/></g>
<g><path style="opacity:0.902" fill="#ac8b46" d="M 393.5,361.5 C 393.573,363.027 392.906,364.027 391.5,364.5C 391.427,362.973 392.094,361.973 393.5,361.5 Z"/></g>
<g><path style="opacity:0.902" fill="#ab8b46" d="M 391.5,364.5 C 391.573,366.027 390.906,367.027 389.5,367.5C 389.427,365.973 390.094,364.973 391.5,364.5 Z"/></g>
<g><path style="opacity:0.808" fill="#a08241" d="M 1422.5,364.5 C 1423.91,364.973 1424.57,365.973 1424.5,367.5C 1423.09,367.027 1422.43,366.027 1422.5,364.5 Z"/></g>
<g><path style="opacity:0.902" fill="#ab8b46" d="M 389.5,367.5 C 389.573,369.027 388.906,370.027 387.5,370.5C 387.427,368.973 388.094,367.973 389.5,367.5 Z"/></g>
<g><path style="opacity:0.902" fill="#a88845" d="M 712.5,367.5 C 712.573,369.027 711.906,370.027 710.5,370.5C 710.427,368.973 711.094,367.973 712.5,367.5 Z"/></g>
<g><path style="opacity:0.902" fill="#ab8b46" d="M 1424.5,367.5 C 1425.91,367.973 1426.57,368.973 1426.5,370.5C 1425.09,370.027 1424.43,369.027 1424.5,367.5 Z"/></g>
<g><path style="opacity:0.753" fill="#9c7f40" d="M 490.5,369.5 C 563.665,370.499 636.998,370.833 710.5,370.5C 636.668,371.666 562.668,371.832 488.5,371C 489.044,370.283 489.711,369.783 490.5,369.5 Z"/></g>
<g><path style="opacity:0.753" fill="#9c7f40" d="M 812.5,369.5 C 883.998,370.499 955.665,370.833 1027.5,370.5C 1027.5,370.833 1027.5,371.167 1027.5,371.5C 955.497,371.833 883.497,371.5 811.5,370.5C 811.624,369.893 811.957,369.56 812.5,369.5 Z"/></g>
<g><path style="opacity:0.753" fill="#9c7f40" d="M 1324.5,369.5 C 1325.04,369.56 1325.38,369.893 1325.5,370.5C 1253.5,371.5 1181.5,371.833 1109.5,371.5C 1109.5,371.167 1109.5,370.833 1109.5,370.5C 1181.34,370.833 1253,370.499 1324.5,369.5 Z"/></g>
<g><path style="opacity:0.753" fill="#9d8041" d="M 1645.5,368.5 C 1647.05,368.821 1647.71,369.821 1647.5,371.5C 1573.66,371.833 1500,371.499 1426.5,370.5C 1499.83,370.667 1573.17,370.5 1646.5,370C 1645.94,369.617 1645.61,369.117 1645.5,368.5 Z"/></g>
<g><path style="opacity:0.808" fill="#a18242" d="M 385.5,373.5 C 385.573,375.027 384.906,376.027 383.5,376.5C 383.427,374.973 384.094,373.973 385.5,373.5 Z"/></g>
<g><path style="opacity:0.937" fill="#b19049" d="M 1751.5,373.5 C 1752.91,373.973 1753.57,374.973 1753.5,376.5C 1752.09,376.027 1751.43,375.027 1751.5,373.5 Z"/></g>
<g><path style="opacity:0.439" fill="#876e38" d="M 383.5,376.5 C 309.507,378.497 235.174,379.164 160.5,378.5C 234.736,377.83 309.069,377.164 383.5,376.5 Z"/></g>
<g><path style="opacity:0.984" fill="#ad8d47" d="M 92.5,396.5 C 92.0269,397.906 91.0269,398.573 89.5,398.5C 89.9731,397.094 90.9731,396.427 92.5,396.5 Z"/></g>
<g><path style="opacity:0.984" fill="#ac8c46" d="M 80.5,403.5 C 80.0269,404.906 79.0269,405.573 77.5,405.5C 77.9731,404.094 78.9731,403.427 80.5,403.5 Z"/></g>
<g><path style="opacity:0.984" fill="#ab8b46" d="M 74.5,407.5 C 74.0269,408.906 73.0269,409.573 71.5,409.5C 71.9731,408.094 72.9731,407.427 74.5,407.5 Z"/></g>
<g><path style="opacity:0.965" fill="#b08f48" d="M 66.5,413.5 C 65.7377,415.262 64.4044,416.262 62.5,416.5C 63.2623,414.738 64.5956,413.738 66.5,413.5 Z"/></g>
<g><path style="opacity:0.996" fill="#b9974c" d="M 60.5,418.5 C 59.4154,420.587 57.7488,421.92 55.5,422.5C 56.5846,420.413 58.2512,419.08 60.5,418.5 Z"/></g>
<g><path style="opacity:0.965" fill="#a58644" d="M 43.5,434.5 C 43.573,436.027 42.9063,437.027 41.5,437.5C 41.427,435.973 42.0937,434.973 43.5,434.5 Z"/></g>
<g><path style="opacity:0.996" fill="#af8e48" d="M 2096.5,438.5 C 2098.26,439.262 2099.26,440.596 2099.5,442.5C 2097.74,441.738 2096.74,440.404 2096.5,438.5 Z"/></g>
<g><path style="opacity:0.996" fill="#ad8d47" d="M 39.5,439.5 C 39.2624,441.404 38.2624,442.738 36.5,443.5C 36.7376,441.596 37.7376,440.262 39.5,439.5 Z"/></g>
<g><path style="opacity:0.902" fill="#a78844" d="M 35.5,444.5 C 35.573,446.027 34.9063,447.027 33.5,447.5C 33.427,445.973 34.0937,444.973 35.5,444.5 Z"/></g>
<g><path style="opacity:0.902" fill="#aa8a46" d="M 2103.5,447.5 C 2104.91,447.973 2105.57,448.973 2105.5,450.5C 2104.09,450.027 2103.43,449.027 2103.5,447.5 Z"/></g>
<g><path style="opacity:0.937" fill="#b08f48" d="M 2105.5,450.5 C 2106.91,450.973 2107.57,451.973 2107.5,453.5C 2106.09,453.027 2105.43,452.027 2105.5,450.5 Z"/></g>
<g><path style="opacity:0.808" fill="#a08241" d="M 30.5,451.5 C 30.573,453.027 29.9063,454.027 28.5,454.5C 28.427,452.973 29.0937,451.973 30.5,451.5 Z"/></g>
<g><path style="opacity:0.937" fill="#b19049" d="M 2107.5,453.5 C 2108.91,453.973 2109.57,454.973 2109.5,456.5C 2108.09,456.027 2107.43,455.027 2107.5,453.5 Z"/></g>
<g><path style="opacity:0.753" fill="#9e8141" d="M 25.5,459.5 C 25.573,461.027 24.9063,462.027 23.5,462.5C 23.427,460.973 24.0937,459.973 25.5,459.5 Z"/></g>
<g><path style="opacity:0.753" fill="#9f8141" d="M 2010.5,463.5 C 2012.03,463.427 2013.03,464.094 2013.5,465.5C 2011.97,465.573 2010.97,464.906 2010.5,463.5 Z"/></g>
<g><path style="opacity:0.937" fill="#ae8e47" d="M 2021.5,470.5 C 2023.03,470.427 2024.03,471.094 2024.5,472.5C 2022.97,472.573 2021.97,471.906 2021.5,470.5 Z"/></g>
<g><path style="opacity:1" fill="#ebbf60" d="M 1873.5,644.5 C 1873.43,646.027 1874.09,647.027 1875.5,647.5C 1876.17,647.5 1876.5,647.833 1876.5,648.5C 1876.43,650.027 1877.09,651.027 1878.5,651.5C 1878.43,653.027 1879.09,654.027 1880.5,654.5C 1888.08,666.023 1893.25,678.69 1896,692.5C 1900.94,719.905 1900.61,747.239 1895,774.5C 1889.96,795.082 1879.46,812.248 1863.5,826C 1840.15,842.178 1815.15,855.511 1788.5,866C 1765.46,875.356 1742.13,883.856 1718.5,891.5C 1717.5,891.5 1716.5,891.5 1715.5,891.5C 1715.18,897.69 1715.51,903.69 1716.5,909.5C 1775.17,909.5 1833.83,909.5 1892.5,909.5C 1892.5,942.833 1892.5,976.167 1892.5,1009.5C 1785.17,1009.5 1677.83,1009.5 1570.5,1009.5C 1570.33,977.498 1570.5,945.498 1571,913.5C 1572.65,896.581 1576.65,880.247 1583,864.5C 1584.03,861.761 1585.53,859.428 1587.5,857.5C 1588.91,857.027 1589.57,856.027 1589.5,854.5C 1590.91,854.027 1591.57,853.027 1591.5,851.5C 1591.5,850.833 1591.83,850.5 1592.5,850.5C 1593.91,850.027 1594.57,849.027 1594.5,847.5C 1596.17,845.167 1598.17,843.167 1600.5,841.5C 1602.83,839.833 1604.83,837.833 1606.5,835.5C 1608.17,833.167 1610.17,831.167 1612.5,829.5C 1614.75,828.92 1616.42,827.587 1617.5,825.5C 1617.83,824.5 1618.5,823.833 1619.5,823.5C 1621.75,822.92 1623.42,821.587 1624.5,819.5C 1624.5,818.833 1624.83,818.5 1625.5,818.5C 1627.4,818.262 1628.74,817.262 1629.5,815.5C 1630.44,814.026 1631.77,813.026 1633.5,812.5C 1635.03,812.573 1636.03,811.906 1636.5,810.5C 1638.03,810.573 1639.03,809.906 1639.5,808.5C 1646.11,803.856 1653.11,799.689 1660.5,796C 1694.4,780.214 1728.4,764.714 1762.5,749.5C 1763.83,744.208 1764.5,738.542 1764.5,732.5C 1764.5,726.657 1764.17,720.99 1763.5,715.5C 1707.18,709.299 1651.51,712.966 1596.5,726.5C 1595.81,725.975 1595.31,725.308 1595,724.5C 1589.75,693.579 1584.25,662.746 1578.5,632C 1653.08,609.118 1729.08,602.452 1806.5,612C 1824.6,615.031 1841.6,621.031 1857.5,630C 1863.63,633.96 1868.96,638.793 1873.5,644.5 Z"/></g>
<g><path style="opacity:0.439" fill="#876e38" d="M 365.5,620.5 C 322.167,620.5 278.833,620.5 235.5,620.5C 235.5,621.833 235.5,623.167 235.5,624.5C 234.549,623.081 234.216,621.415 234.5,619.5C 278.337,619.168 322.003,619.501 365.5,620.5 Z"/></g>
<g><path style="opacity:0.439" fill="#866d37" d="M 615.5,620.5 C 658.997,619.501 702.663,619.168 746.5,619.5C 746.737,620.791 746.404,621.791 745.5,622.5C 702.513,620.505 659.18,619.839 615.5,620.5 Z"/></g>
<g><path style="opacity:0.439" fill="#876e38" d="M 781.5,620.5 C 872.665,619.501 963.998,619.167 1055.5,619.5C 1055.79,621.735 1055.46,623.735 1054.5,625.5C 1054.5,623.833 1054.5,622.167 1054.5,620.5C 963.5,620.5 872.5,620.5 781.5,620.5 Z"/></g>
<g><path style="opacity:1" fill="#ebbf60" d="M 615.5,620.5 C 659.18,619.839 702.513,620.505 745.5,622.5C 725.927,750.603 705.927,878.603 685.5,1006.5C 658.381,1007.82 631.047,1008.49 603.5,1008.5C 575.953,1008.49 548.619,1007.82 521.5,1006.5C 511.788,959.939 502.454,913.272 493.5,866.5C 491.167,866.5 488.833,866.5 486.5,866.5C 477.54,914.101 468.206,961.601 458.5,1009C 404.164,1009.83 349.83,1009.67 295.5,1008.5C 275.035,880.578 255.035,752.578 235.5,624.5C 235.5,623.167 235.5,621.833 235.5,620.5C 278.833,620.5 322.167,620.5 365.5,620.5C 375.33,692.473 384.997,764.473 394.5,836.5C 395.568,837.434 396.901,837.768 398.5,837.5C 398.5,836.5 398.5,835.5 398.5,834.5C 412.676,763.118 427.176,691.785 442,620.5C 474.093,619.504 506.26,619.171 538.5,619.5C 553.167,691.833 567.833,764.167 582.5,836.5C 583.5,836.5 584.5,836.5 585.5,836.5C 595.177,764.416 605.177,692.416 615.5,620.5 Z"/></g>
<g><path style="opacity:1" fill="#ebbf60" d="M 781.5,620.5 C 872.5,620.5 963.5,620.5 1054.5,620.5C 1054.5,622.167 1054.5,623.833 1054.5,625.5C 1050.37,653.955 1045.7,682.288 1040.5,710.5C 995.548,712.156 950.548,713.156 905.5,713.5C 905.5,733.167 905.5,752.833 905.5,772.5C 947.167,772.5 988.833,772.5 1030.5,772.5C 1030.5,802.5 1030.5,832.5 1030.5,862.5C 989.167,862.5 947.833,862.5 906.5,862.5C 905.503,880.326 905.17,898.326 905.5,916.5C 956.5,916.5 1007.5,916.5 1058.5,916.5C 1058.5,947.5 1058.5,978.5 1058.5,1009.5C 966.167,1009.5 873.833,1009.5 781.5,1009.5C 781.5,879.833 781.5,750.167 781.5,620.5 Z"/></g>
<g><path style="opacity:0.937" fill="#b19049" d="M 1329.5,620.5 C 1258.5,620.5 1187.5,620.5 1116.5,620.5C 1116.5,749.833 1116.5,879.167 1116.5,1008.5C 1195.83,1008.5 1275.17,1008.5 1354.5,1008.5C 1275,1009.5 1195.34,1009.83 1115.5,1009.5C 1115.5,879.5 1115.5,749.5 1115.5,619.5C 1187,619.167 1258.34,619.501 1329.5,620.5 Z"/></g>
<g><path style="opacity:1" fill="#ebbf60" d="M 1329.5,620.5 C 1352.14,619.91 1373.14,625.41 1392.5,637C 1396.67,640.002 1400.33,643.502 1403.5,647.5C 1403.43,649.027 1404.09,650.027 1405.5,650.5C 1406.17,650.5 1406.5,650.833 1406.5,651.5C 1406.43,653.027 1407.09,654.027 1408.5,654.5C 1415.51,665.019 1419.68,676.686 1421,689.5C 1424.05,715.09 1420.72,739.757 1411,763.5C 1404.22,776.615 1394.39,786.781 1381.5,794C 1376.44,796.702 1371.1,798.536 1365.5,799.5C 1365.36,801.124 1366.03,802.29 1367.5,803C 1389.9,806.284 1407.9,816.784 1421.5,834.5C 1421.43,836.027 1422.09,837.027 1423.5,837.5C 1429.49,845.16 1433.66,853.826 1436,863.5C 1444.34,894.951 1443.01,925.951 1432,956.5C 1416.82,989.483 1390.99,1006.82 1354.5,1008.5C 1275.17,1008.5 1195.83,1008.5 1116.5,1008.5C 1116.5,879.167 1116.5,749.833 1116.5,620.5C 1187.5,620.5 1258.5,620.5 1329.5,620.5 Z M 1286.5,706.5 C 1294.57,709.24 1299.4,714.906 1301,723.5C 1303.2,734.243 1302.03,744.576 1297.5,754.5C 1295.5,755.833 1293.83,757.5 1292.5,759.5C 1289.57,760.698 1286.57,761.698 1283.5,762.5C 1267.17,762.5 1250.83,762.5 1234.5,762.5C 1234.5,743.833 1234.5,725.167 1234.5,706.5C 1251.83,706.5 1269.17,706.5 1286.5,706.5 Z M 1291.5,854.5 C 1300.69,855.532 1307.19,860.198 1311,868.5C 1314.43,880.896 1314.27,893.23 1310.5,905.5C 1309.09,905.973 1308.43,906.973 1308.5,908.5C 1306.5,909.833 1304.83,911.5 1303.5,913.5C 1299.67,915.164 1295.67,916.331 1291.5,917C 1272.5,917.5 1253.5,917.667 1234.5,917.5C 1234.5,896.5 1234.5,875.5 1234.5,854.5C 1253.5,854.5 1272.5,854.5 1291.5,854.5 Z"/></g>
<g><path style="opacity:0.965" fill="#a48543" d="M 1873.5,644.5 C 1874.91,644.973 1875.57,645.973 1875.5,647.5C 1874.09,647.027 1873.43,646.027 1873.5,644.5 Z"/></g>
<g><path style="opacity:0.859" fill="#a08241" d="M 1403.5,647.5 C 1404.91,647.973 1405.57,648.973 1405.5,650.5C 1404.09,650.027 1403.43,649.027 1403.5,647.5 Z"/></g>
<g><path style="opacity:0.937" fill="#ae8e47" d="M 1876.5,648.5 C 1877.91,648.973 1878.57,649.973 1878.5,651.5C 1877.09,651.027 1876.43,650.027 1876.5,648.5 Z"/></g>
<g><path style="opacity:0.808" fill="#9e8040" d="M 1406.5,651.5 C 1407.91,651.973 1408.57,652.973 1408.5,654.5C 1407.09,654.027 1406.43,653.027 1406.5,651.5 Z"/></g>
<g><path style="opacity:0.937" fill="#b19049" d="M 1878.5,651.5 C 1879.91,651.973 1880.57,652.973 1880.5,654.5C 1879.09,654.027 1878.43,653.027 1878.5,651.5 Z"/></g>
<g><path style="opacity:0.753" fill="#93783d" d="M 1286.5,706.5 C 1269.17,706.5 1251.83,706.5 1234.5,706.5C 1234.5,725.167 1234.5,743.833 1234.5,762.5C 1250.83,762.5 1267.17,762.5 1283.5,762.5C 1267.01,763.497 1250.34,763.83 1233.5,763.5C 1233.5,744.167 1233.5,724.833 1233.5,705.5C 1251.34,705.17 1269.01,705.503 1286.5,706.5 Z"/></g>
<g><path style="opacity:0.937" fill="#bc994d" d="M 1040.5,710.5 C 1040.5,711.5 1040.5,712.5 1040.5,713.5C 995.833,713.5 951.167,713.5 906.5,713.5C 906.167,713.5 905.833,713.5 905.5,713.5C 950.548,713.156 995.548,712.156 1040.5,710.5 Z"/></g>
<g><path style="opacity:0.753" fill="#9d8041" d="M 1763.5,715.5 C 1764.17,720.99 1764.5,726.657 1764.5,732.5C 1764.5,738.542 1763.83,744.208 1762.5,749.5C 1763.48,738.248 1763.81,726.914 1763.5,715.5 Z"/></g>
<g><path style="opacity:0.965" fill="#ad8c47" d="M 1297.5,754.5 C 1296.83,757.167 1295.17,758.833 1292.5,759.5C 1293.83,757.5 1295.5,755.833 1297.5,754.5 Z"/></g>
<g><path style="opacity:0.753" fill="#9d8041" d="M 905.5,713.5 C 905.833,713.5 906.167,713.5 906.5,713.5C 906.5,732.833 906.5,752.167 906.5,771.5C 948.003,771.168 989.337,771.501 1030.5,772.5C 988.833,772.5 947.167,772.5 905.5,772.5C 905.5,752.833 905.5,733.167 905.5,713.5 Z"/></g>
<g><path style="opacity:0.984" fill="#ad8d47" d="M 1639.5,808.5 C 1639.03,809.906 1638.03,810.573 1636.5,810.5C 1636.97,809.094 1637.97,808.427 1639.5,808.5 Z"/></g>
<g><path style="opacity:0.984" fill="#b08f48" d="M 1636.5,810.5 C 1636.03,811.906 1635.03,812.573 1633.5,812.5C 1633.97,811.094 1634.97,810.427 1636.5,810.5 Z"/></g>
<g><path style="opacity:0.965" fill="#ae8e47" d="M 1629.5,815.5 C 1628.74,817.262 1627.4,818.262 1625.5,818.5C 1626.26,816.738 1627.6,815.738 1629.5,815.5 Z"/></g>
<g><path style="opacity:0.996" fill="#b8964b" d="M 1624.5,819.5 C 1623.42,821.587 1621.75,822.92 1619.5,823.5C 1620.58,821.413 1622.25,820.08 1624.5,819.5 Z"/></g>
<g><path style="opacity:0.996" fill="#b9974c" d="M 1617.5,825.5 C 1616.42,827.587 1614.75,828.92 1612.5,829.5C 1613.58,827.413 1615.25,826.08 1617.5,825.5 Z"/></g>
<g><path style="opacity:0.439" fill="#8d733a" d="M 398.5,834.5 C 398.5,835.5 398.5,836.5 398.5,837.5C 396.901,837.768 395.568,837.434 394.5,836.5C 396.199,836.473 397.533,835.806 398.5,834.5 Z"/></g>
<g><path style="opacity:0.937" fill="#b08f48" d="M 1421.5,834.5 C 1422.91,834.973 1423.57,835.973 1423.5,837.5C 1422.09,837.027 1421.43,836.027 1421.5,834.5 Z"/></g>
<g><path style="opacity:0.965" fill="#ab8b46" d="M 1606.5,835.5 C 1604.83,837.833 1602.83,839.833 1600.5,841.5C 1601.5,838.5 1603.5,836.5 1606.5,835.5 Z"/></g>
<g><path style="opacity:0.859" fill="#a08241" d="M 1594.5,847.5 C 1594.57,849.027 1593.91,850.027 1592.5,850.5C 1592.43,848.973 1593.09,847.973 1594.5,847.5 Z"/></g>
<g><path style="opacity:0.902" fill="#a78844" d="M 1591.5,851.5 C 1591.57,853.027 1590.91,854.027 1589.5,854.5C 1589.43,852.973 1590.09,851.973 1591.5,851.5 Z"/></g>
<g><path style="opacity:0.753" fill="#a78845" d="M 1291.5,854.5 C 1272.5,854.5 1253.5,854.5 1234.5,854.5C 1234.5,875.5 1234.5,896.5 1234.5,917.5C 1233.5,896.34 1233.17,875.007 1233.5,853.5C 1253.01,853.17 1272.34,853.503 1291.5,854.5 Z"/></g>
<g><path style="opacity:0.937" fill="#b08f48" d="M 1589.5,854.5 C 1589.57,856.027 1588.91,857.027 1587.5,857.5C 1587.43,855.973 1588.09,854.973 1589.5,854.5 Z"/></g>
<g><path style="opacity:0.439" fill="#886f38" d="M 1718.5,891.5 C 1716.61,897.208 1715.95,903.208 1716.5,909.5C 1715.51,903.69 1715.18,897.69 1715.5,891.5C 1716.5,891.5 1717.5,891.5 1718.5,891.5 Z"/></g>
<g><path style="opacity:0.753" fill="#9e8141" d="M 1310.5,905.5 C 1310.57,907.027 1309.91,908.027 1308.5,908.5C 1308.43,906.973 1309.09,905.973 1310.5,905.5 Z"/></g>
<g><path style="opacity:0.996" fill="#be9b4e" d="M 1308.5,908.5 C 1307.83,911.167 1306.17,912.833 1303.5,913.5C 1304.83,911.5 1306.5,909.833 1308.5,908.5 Z"/></g>
<g><path style="opacity:0.753" fill="#9d8041" d="M 906.5,862.5 C 906.5,880.167 906.5,897.833 906.5,915.5C 957.336,915.168 1008,915.501 1058.5,916.5C 1007.5,916.5 956.5,916.5 905.5,916.5C 905.17,898.326 905.503,880.326 906.5,862.5 Z"/></g>
<g><path style="opacity:0.937" fill="#bb994d" d="M 521.5,1006.5 C 548.619,1007.82 575.953,1008.49 603.5,1008.5C 631.047,1008.49 658.381,1007.82 685.5,1006.5C 685.5,1007.5 685.5,1008.5 685.5,1009.5C 630.833,1009.5 576.167,1009.5 521.5,1009.5C 521.5,1008.5 521.5,1007.5 521.5,1006.5 Z"/></g>
<g><path style="opacity:0.937" fill="#b6944b" d="M 1892.5,909.5 C 1893.5,942.996 1893.83,976.663 1893.5,1010.5C 1785.67,1010.83 1678,1010.5 1570.5,1009.5C 1677.83,1009.5 1785.17,1009.5 1892.5,1009.5C 1892.5,976.167 1892.5,942.833 1892.5,909.5 Z"/></g>
<g><path style="opacity:0.902" fill="#ab8b46" d="M 90.5,1132.5 C 91.9063,1132.97 92.573,1133.97 92.5,1135.5C 91.0937,1135.03 90.427,1134.03 90.5,1132.5 Z"/></g>
<g><path style="opacity:0.937" fill="#b19049" d="M 2046.5,1132.5 C 2046.57,1134.03 2045.91,1135.03 2044.5,1135.5C 2044.43,1133.97 2045.09,1132.97 2046.5,1132.5 Z"/></g>
<g><path style="opacity:0.996" fill="#b08f48" d="M 2044.5,1135.5 C 2044.26,1137.4 2043.26,1138.74 2041.5,1139.5C 2041.74,1137.6 2042.74,1136.26 2044.5,1135.5 Z"/></g>
<g><path style="opacity:0.996" fill="#b08f48" d="M 95.5,1139.5 C 97.2624,1140.26 98.2624,1141.6 98.5,1143.5C 96.7376,1142.74 95.7376,1141.4 95.5,1139.5 Z"/></g>
<g><path style="opacity:0.965" fill="#ac8c46" d="M 2028.5,1153.5 C 2027.74,1155.26 2026.4,1156.26 2024.5,1156.5C 2025.26,1154.74 2026.6,1153.74 2028.5,1153.5 Z"/></g>
<g><path style="opacity:0.984" fill="#b08f48" d="M 2023.5,1157.5 C 2023.03,1158.91 2022.03,1159.57 2020.5,1159.5C 2020.97,1158.09 2021.97,1157.43 2023.5,1157.5 Z"/></g>
<g><path style="opacity:0.984" fill="#ad8d47" d="M 2017.5,1161.5 C 2017.03,1162.91 2016.03,1163.57 2014.5,1163.5C 2014.97,1162.09 2015.97,1161.43 2017.5,1161.5 Z"/></g>
<g><path style="opacity:0.859" fill="#a08241" d="M 50.5,1202.5 C 52.0269,1202.43 53.0269,1203.09 53.5,1204.5C 51.9731,1204.57 50.9731,1203.91 50.5,1202.5 Z"/></g>
<g><path style="opacity:0.808" fill="#a18242" d="M 72.5,1220.5 C 74.0269,1220.43 75.0269,1221.09 75.5,1222.5C 73.9731,1222.57 72.9731,1221.91 72.5,1220.5 Z"/></g>
<g><path style="opacity:0.753" fill="#9e8041" d="M 78.5,1224.5 C 80.0269,1224.43 81.0269,1225.09 81.5,1226.5C 79.9731,1226.57 78.9731,1225.91 78.5,1224.5 Z"/></g>
<g><path style="opacity:0.753" fill="#9e8141" d="M 83.5,1227.5 C 85.0269,1227.43 86.0269,1228.09 86.5,1229.5C 84.9731,1229.57 83.9731,1228.91 83.5,1227.5 Z"/></g>
<g><path style="opacity:0.937" fill="#bc994d" d="M 699.5,1260.5 C 698.711,1260.22 698.044,1259.72 697.5,1259C 628.332,1258.17 559.332,1258.33 490.5,1259.5C 489.957,1259.44 489.624,1259.11 489.5,1258.5C 559.164,1257.33 628.831,1257.17 698.5,1258C 699.252,1258.67 699.586,1259.5 699.5,1260.5 Z"/></g>
<g><path style="opacity:0.937" fill="#bc994d" d="M 1027.5,1258.5 C 951.493,1257.84 875.826,1258.5 800.5,1260.5C 799.522,1260.19 798.855,1259.52 798.5,1258.5C 874.999,1257.17 951.332,1257.17 1027.5,1258.5 Z"/></g>
<g><path style="opacity:0.937" fill="#bc994d" d="M 1109.5,1258.5 C 1185.67,1257.17 1262,1257.17 1338.5,1258.5C 1338.14,1259.52 1337.48,1260.19 1336.5,1260.5C 1261.17,1258.5 1185.51,1257.84 1109.5,1258.5 Z"/></g>
<g><path style="opacity:0.937" fill="#bc994d" d="M 1439.5,1258.5 C 1509,1257.17 1578.67,1257.17 1648.5,1258.5C 1648.38,1259.11 1648.04,1259.44 1647.5,1259.5C 1578.34,1258.5 1509,1258.17 1439.5,1258.5 Z"/></g>
<g><path style="opacity:0.937" fill="#bc994d" d="M 1027.5,1258.5 C 1028.83,1335 1028.83,1411.67 1027.5,1488.5C 1026.89,1488.38 1026.56,1488.04 1026.5,1487.5C 1027.5,1411.34 1027.83,1335 1027.5,1258.5 Z"/></g>
<g><path style="opacity:0.937" fill="#bc994d" d="M 1109.5,1258.5 C 1109.33,1334.83 1109.5,1411.17 1110,1487.5C 1110.67,1486.75 1111.5,1486.41 1112.5,1486.5C 1111.71,1488.1 1110.38,1488.77 1108.5,1488.5C 1108.17,1411.66 1108.5,1335 1109.5,1258.5 Z"/></g>
<g><path style="opacity:0.996" fill="#b08f48" d="M 497.5,1268.5 C 499.262,1269.26 500.262,1270.6 500.5,1272.5C 498.738,1271.74 497.738,1270.4 497.5,1268.5 Z"/></g>
<g><path style="opacity:0.996" fill="#b08f48" d="M 1640.5,1268.5 C 1640.26,1270.4 1639.26,1271.74 1637.5,1272.5C 1637.74,1270.6 1638.74,1269.26 1640.5,1268.5 Z"/></g>
<g><path style="opacity:0.996" fill="#ad8d47" d="M 1327.5,1271.5 C 1327.26,1273.4 1326.26,1274.74 1324.5,1275.5C 1324.74,1273.6 1325.74,1272.26 1327.5,1271.5 Z"/></g>
<g><path style="opacity:0.996" fill="#ad8d47" d="M 501.5,1273.5 C 503.262,1274.26 504.262,1275.6 504.5,1277.5C 502.738,1276.74 501.738,1275.4 501.5,1273.5 Z"/></g>
<g><path style="opacity:0.996" fill="#aa8a46" d="M 506.5,1279.5 C 508.262,1280.26 509.262,1281.6 509.5,1283.5C 507.738,1282.74 506.738,1281.4 506.5,1279.5 Z"/></g>
<g><path style="opacity:0.996" fill="#ae8d47" d="M 1631.5,1279.5 C 1631.26,1281.4 1630.26,1282.74 1628.5,1283.5C 1628.74,1281.6 1629.74,1280.26 1631.5,1279.5 Z"/></g>
<g><path style="opacity:0.996" fill="#ad8d47" d="M 817.5,1281.5 C 819.262,1282.26 820.262,1283.6 820.5,1285.5C 818.738,1284.74 817.738,1283.4 817.5,1281.5 Z"/></g>
<g><path style="opacity:0.996" fill="#ae8d47" d="M 1318.5,1282.5 C 1318.26,1284.4 1317.26,1285.74 1315.5,1286.5C 1315.74,1284.6 1316.74,1283.26 1318.5,1282.5 Z"/></g>
<g><path style="opacity:0.996" fill="#ac8c47" d="M 511.5,1285.5 C 513.262,1286.26 514.262,1287.6 514.5,1289.5C 512.738,1288.74 511.738,1287.4 511.5,1285.5 Z"/></g>
<g><path style="opacity:0.965" fill="#b19049" d="M 1626.5,1285.5 C 1626.26,1287.4 1625.26,1288.74 1623.5,1289.5C 1623.74,1287.6 1624.74,1286.26 1626.5,1285.5 Z"/></g>
<g><path style="opacity:0.996" fill="#aa8a46" d="M 822.5,1287.5 C 824.262,1288.26 825.262,1289.6 825.5,1291.5C 823.738,1290.74 822.738,1289.4 822.5,1287.5 Z"/></g>
<g><path style="opacity:0.996" fill="#ae8d47" d="M 1313.5,1288.5 C 1313.26,1290.4 1312.26,1291.74 1310.5,1292.5C 1310.74,1290.6 1311.74,1289.26 1313.5,1288.5 Z"/></g>
<g><path style="opacity:0.996" fill="#a88945" d="M 517.5,1292.5 C 519.587,1293.58 520.92,1295.25 521.5,1297.5C 519.413,1296.42 518.08,1294.75 517.5,1292.5 Z"/></g>
<g><path style="opacity:0.996" fill="#ae8e47" d="M 827.5,1293.5 C 829.262,1294.26 830.262,1295.6 830.5,1297.5C 828.738,1296.74 827.738,1295.4 827.5,1293.5 Z"/></g>
<g><path style="opacity:0.965" fill="#a58644" d="M 1618.5,1294.5 C 1618.57,1296.03 1617.91,1297.03 1616.5,1297.5C 1616.43,1295.97 1617.09,1294.97 1618.5,1294.5 Z"/></g>
<g><path style="opacity:0.859" fill="#a08241" d="M 1306.5,1296.5 C 1306.57,1298.03 1305.91,1299.03 1304.5,1299.5C 1304.43,1297.97 1305.09,1296.97 1306.5,1296.5 Z"/></g>
<g><path style="opacity:0.965" fill="#a68744" d="M 834.5,1301.5 C 835.906,1301.97 836.573,1302.97 836.5,1304.5C 835.094,1304.03 834.427,1303.03 834.5,1301.5 Z"/></g>
<g><path style="opacity:0.965" fill="#a38543" d="M 1300.5,1303.5 C 1300.57,1305.03 1299.91,1306.03 1298.5,1306.5C 1298.43,1304.97 1299.09,1303.97 1300.5,1303.5 Z"/></g>
<g><path style="opacity:0.937" fill="#a98945" d="M 1610.5,1303.5 C 1610.26,1305.4 1609.26,1306.74 1607.5,1307.5C 1607.74,1305.6 1608.74,1304.26 1610.5,1303.5 Z"/></g>
<g><path style="opacity:0.965" fill="#a38543" d="M 841.5,1309.5 C 842.906,1309.97 843.573,1310.97 843.5,1312.5C 842.094,1312.03 841.427,1311.03 841.5,1309.5 Z"/></g>
<g><path style="opacity:0.984" fill="#a38443" d="M 539.5,1316.5 C 541.167,1317.5 542.5,1318.83 543.5,1320.5C 541.167,1320.17 539.833,1318.83 539.5,1316.5 Z"/></g>
<g><path style="opacity:0.996" fill="#bc994d" d="M 1601.5,1313.5 C 1600.83,1316.17 1599.17,1317.83 1596.5,1318.5C 1597.83,1316.5 1599.5,1314.83 1601.5,1313.5 Z"/></g>
<g><path style="opacity:0.965" fill="#a38543" d="M 547.5,1324.5 C 548.906,1324.97 549.573,1325.97 549.5,1327.5C 548.094,1327.03 547.427,1326.03 547.5,1324.5 Z"/></g>
<g><path style="opacity:0.965" fill="#a98945" d="M 1277.5,1329.5 C 1276.92,1331.75 1275.59,1333.42 1273.5,1334.5C 1274.08,1332.25 1275.41,1330.58 1277.5,1329.5 Z"/></g>
<g><path style="opacity:0.965" fill="#af8e48" d="M 1596.5,1318.5 C 1589.43,1327.08 1581.76,1335.25 1573.5,1343C 1572.91,1343.46 1572.24,1343.63 1571.5,1343.5C 1579.5,1334.83 1587.83,1326.5 1596.5,1318.5 Z"/></g>
<g><path style="opacity:0.996" fill="#a68744" d="M 866.5,1337.5 C 868.914,1338.91 870.581,1340.91 871.5,1343.5C 869.086,1342.09 867.419,1340.09 866.5,1337.5 Z"/></g>
<g><path style="opacity:0.965" fill="#ab8b46" d="M 1265.5,1342.5 C 1264.58,1345.09 1262.91,1347.09 1260.5,1348.5C 1261.42,1345.91 1263.09,1343.91 1265.5,1342.5 Z"/></g>
<g><path style="opacity:0.996" fill="#b7954b" d="M 1565.5,1349.5 C 1563.76,1352.24 1561.43,1354.24 1558.5,1355.5C 1560.24,1352.76 1562.57,1350.76 1565.5,1349.5 Z"/></g>
<g><path style="opacity:0.996" fill="#b5934a" d="M 1555.5,1358.5 C 1554.42,1360.59 1552.75,1361.92 1550.5,1362.5C 1551.58,1360.41 1553.25,1359.08 1555.5,1358.5 Z"/></g>
<g><path style="opacity:0.996" fill="#bc9a4d" d="M 1250.5,1358.5 C 1248.83,1362.17 1246.17,1364.83 1242.5,1366.5C 1244.83,1363.5 1247.5,1360.83 1250.5,1358.5 Z"/></g>
<g><path style="opacity:0.996" fill="#ba974c" d="M 1547.5,1365.5 C 1546.42,1367.59 1544.75,1368.92 1542.5,1369.5C 1543.58,1367.41 1545.25,1366.08 1547.5,1365.5 Z"/></g>
<g><path style="opacity:0.965" fill="#ac8c46" d="M 1535.5,1375.5 C 1534.74,1377.26 1533.4,1378.26 1531.5,1378.5C 1532.26,1376.74 1533.6,1375.74 1535.5,1375.5 Z"/></g>
<g><path style="opacity:0.965" fill="#b08f48" d="M 1242.5,1366.5 C 1232.76,1377.75 1222.42,1388.58 1211.5,1399C 1210.91,1399.46 1210.24,1399.63 1209.5,1399.5C 1220.17,1388.17 1231.17,1377.17 1242.5,1366.5 Z"/></g>
<g><path style="opacity:0.965" fill="#ae8e47" d="M 1520.5,1387.5 C 1519.74,1389.26 1518.4,1390.26 1516.5,1390.5C 1517.26,1388.74 1518.6,1387.74 1520.5,1387.5 Z"/></g>
<g><path style="opacity:0.965" fill="#a58644" d="M 507.5,1402.5 C 509.027,1402.43 510.027,1403.09 510.5,1404.5C 508.973,1404.57 507.973,1403.91 507.5,1402.5 Z"/></g>
<g><path style="opacity:0.965" fill="#ae8d47" d="M 1500.5,1402.5 C 1499.74,1404.26 1498.4,1405.26 1496.5,1405.5C 1497.26,1403.74 1498.6,1402.74 1500.5,1402.5 Z"/></g>
<g><path style="opacity:0.984" fill="#a48543" d="M 519.5,1413.5 C 521.749,1414.08 523.415,1415.41 524.5,1417.5C 522.251,1416.92 520.585,1415.59 519.5,1413.5 Z"/></g>
<g><path style="opacity:0.984" fill="#ac8c46" d="M 1483.5,1414.5 C 1483.03,1415.91 1482.03,1416.57 1480.5,1416.5C 1480.97,1415.09 1481.97,1414.43 1483.5,1414.5 Z"/></g>
<g><path style="opacity:0.996" fill="#b8964b" d="M 1199.5,1409.5 C 1197.1,1412.9 1194.1,1415.57 1190.5,1417.5C 1192.9,1414.1 1195.9,1411.43 1199.5,1409.5 Z"/></g>
<g><path style="opacity:0.984" fill="#ab8b46" d="M 1480.5,1416.5 C 1480.03,1417.91 1479.03,1418.57 1477.5,1418.5C 1477.97,1417.09 1478.97,1416.43 1480.5,1416.5 Z"/></g>
<g><path style="opacity:0.984" fill="#ac8c46" d="M 1471.5,1422.5 C 1471.03,1423.91 1470.03,1424.57 1468.5,1424.5C 1468.97,1423.09 1469.97,1422.43 1471.5,1422.5 Z"/></g>
<g><path style="opacity:0.984" fill="#ad8d47" d="M 1468.5,1424.5 C 1468.03,1425.91 1467.03,1426.57 1465.5,1426.5C 1465.97,1425.09 1466.97,1424.43 1468.5,1424.5 Z"/></g>
<g><path style="opacity:0.996" fill="#b6944b" d="M 1184.5,1423.5 C 1182.76,1426.24 1180.43,1428.24 1177.5,1429.5C 1179.24,1426.76 1181.57,1424.76 1184.5,1423.5 Z"/></g>
<g><path style="opacity:0.965" fill="#a48543" d="M 544.5,1435.5 C 546.027,1435.43 547.027,1436.09 547.5,1437.5C 545.973,1437.57 544.973,1436.91 544.5,1435.5 Z"/></g>
<g><path style="opacity:0.996" fill="#b8964b" d="M 1172.5,1434.5 C 1171.09,1436.91 1169.09,1438.58 1166.5,1439.5C 1167.91,1437.09 1169.91,1435.42 1172.5,1434.5 Z"/></g>
<g><path style="opacity:0.996" fill="#ac8c47" d="M 549.5,1439.5 C 551.404,1439.74 552.738,1440.74 553.5,1442.5C 551.596,1442.26 550.262,1441.26 549.5,1439.5 Z"/></g>
<g><path style="opacity:0.996" fill="#a88945" d="M 697.5,1441.5 C 698.71,1441.93 699.71,1442.6 700.5,1443.5C 698.821,1443.71 697.821,1443.05 697.5,1441.5 Z"/></g>
<g><path style="opacity:0.984" fill="#ad8d47" d="M 1437.5,1443.5 C 1437.03,1444.91 1436.03,1445.57 1434.5,1445.5C 1434.97,1444.09 1435.97,1443.43 1437.5,1443.5 Z"/></g>
<g><path style="opacity:0.996" fill="#b8964b" d="M 1162.5,1443.5 C 1161.42,1445.59 1159.75,1446.92 1157.5,1447.5C 1158.58,1445.41 1160.25,1444.08 1162.5,1443.5 Z"/></g>
<g><path style="opacity:0.984" fill="#ad8d47" d="M 1430.5,1447.5 C 1430.03,1448.91 1429.03,1449.57 1427.5,1449.5C 1427.97,1448.09 1428.97,1447.43 1430.5,1447.5 Z"/></g>
<g><path style="opacity:0.984" fill="#ad8d47" d="M 1421.5,1452.5 C 1421.03,1453.91 1420.03,1454.57 1418.5,1454.5C 1418.97,1453.09 1419.97,1452.43 1421.5,1452.5 Z"/></g>
<g><path style="opacity:0.996" fill="#b7954b" d="M 1154.5,1450.5 C 1153.09,1452.91 1151.09,1454.58 1148.5,1455.5C 1149.91,1453.09 1151.91,1451.42 1154.5,1450.5 Z"/></g>
<g><path style="opacity:0.965" fill="#a38543" d="M 868.5,1456.5 C 870.027,1456.43 871.027,1457.09 871.5,1458.5C 869.973,1458.57 868.973,1457.91 868.5,1456.5 Z"/></g>
<g><path style="opacity:0.996" fill="#af8f48" d="M 573.5,1458.5 C 575.404,1458.74 576.738,1459.74 577.5,1461.5C 575.596,1461.26 574.262,1460.26 573.5,1458.5 Z"/></g>
<g><path style="opacity:0.996" fill="#bb984d" d="M 1145.5,1458.5 C 1144.42,1460.59 1142.75,1461.92 1140.5,1462.5C 1141.58,1460.41 1143.25,1459.08 1145.5,1458.5 Z"/></g>
<g><path style="opacity:0.902" fill="#a78844" d="M 578.5,1462.5 C 580.027,1462.43 581.027,1463.09 581.5,1464.5C 579.973,1464.57 578.973,1463.91 578.5,1462.5 Z"/></g>
<g><path style="opacity:0.902" fill="#a78844" d="M 582.5,1465.5 C 584.027,1465.43 585.027,1466.09 585.5,1467.5C 583.973,1467.57 582.973,1466.91 582.5,1465.5 Z"/></g>
<g><path style="opacity:0.996" fill="#af8f48" d="M 585.5,1467.5 C 587.404,1467.74 588.738,1468.74 589.5,1470.5C 587.596,1470.26 586.262,1469.26 585.5,1467.5 Z"/></g>
<g><path style="opacity:0.996" fill="#b8964b" d="M 1138.5,1464.5 C 1137.42,1466.59 1135.75,1467.92 1133.5,1468.5C 1134.58,1466.41 1136.25,1465.08 1138.5,1464.5 Z"/></g>
<g><path style="opacity:0.996" fill="#b8964b" d="M 1131.5,1470.5 C 1130.42,1472.59 1128.75,1473.92 1126.5,1474.5C 1127.58,1472.41 1129.25,1471.08 1131.5,1470.5 Z"/></g>
<g><path style="opacity:0.902" fill="#a88845" d="M 593.5,1473.5 C 595.027,1473.43 596.027,1474.09 596.5,1475.5C 594.973,1475.57 593.973,1474.91 593.5,1473.5 Z"/></g>
<g><path style="opacity:0.965" fill="#b08f48" d="M 1124.5,1476.5 C 1123.74,1478.26 1122.4,1479.26 1120.5,1479.5C 1121.26,1477.74 1122.6,1476.74 1124.5,1476.5 Z"/></g>
<g><path style="opacity:0.859" fill="#a48543" d="M 600.5,1478.5 C 602.027,1478.43 603.027,1479.09 603.5,1480.5C 601.973,1480.57 600.973,1479.91 600.5,1478.5 Z"/></g>
<g><path style="opacity:0.937" fill="#af8e48" d="M 603.5,1480.5 C 605.027,1480.43 606.027,1481.09 606.5,1482.5C 604.973,1482.57 603.973,1481.91 603.5,1480.5 Z"/></g>
<g><path style="opacity:0.937" fill="#b19049" d="M 606.5,1482.5 C 608.027,1482.43 609.027,1483.09 609.5,1484.5C 607.973,1484.57 606.973,1483.91 606.5,1482.5 Z"/></g>
<g><path style="opacity:0.996" fill="#a68744" d="M 898.5,1484.5 C 901.089,1485.42 903.089,1487.09 904.5,1489.5C 901.911,1488.58 899.911,1486.91 898.5,1484.5 Z"/></g>
<g><path style="opacity:0.996" fill="#b9974c" d="M 1118.5,1481.5 C 1117.42,1483.59 1115.75,1484.92 1113.5,1485.5C 1114.58,1483.41 1116.25,1482.08 1118.5,1481.5 Z"/></g>
<g><path style="opacity:0.808" fill="#a18242" d="M 616.5,1489.5 C 618.027,1489.43 619.027,1490.09 619.5,1491.5C 617.973,1491.57 616.973,1490.91 616.5,1489.5 Z"/></g>
<g><path style="opacity:0.984" fill="#a48543" d="M 910.5,1495.5 C 912.749,1496.08 914.415,1497.41 915.5,1499.5C 913.251,1498.92 911.585,1497.59 910.5,1495.5 Z"/></g>
<g><path style="opacity:0.937" fill="#b19049" d="M 627.5,1496.5 C 629.027,1496.43 630.027,1497.09 630.5,1498.5C 628.973,1498.57 627.973,1497.91 627.5,1496.5 Z"/></g>
<g><path style="opacity:0.902" fill="#ab8b46" d="M 630.5,1498.5 C 632.027,1498.43 633.027,1499.09 633.5,1500.5C 631.973,1500.57 630.973,1499.91 630.5,1498.5 Z"/></g>
<g><path style="opacity:0.808" fill="#a18242" d="M 633.5,1500.5 C 635.027,1500.43 636.027,1501.09 636.5,1502.5C 634.973,1502.57 633.973,1501.91 633.5,1500.5 Z"/></g>
<g><path style="opacity:0.984" fill="#a88845" d="M 920.5,1504.5 C 922.404,1504.74 923.738,1505.74 924.5,1507.5C 922.596,1507.26 921.262,1506.26 920.5,1504.5 Z"/></g>
<g><path style="opacity:0.753" fill="#9e8041" d="M 641.5,1505.5 C 643.027,1505.43 644.027,1506.09 644.5,1507.5C 642.973,1507.57 641.973,1506.91 641.5,1505.5 Z"/></g>
<g><path style="opacity:0.753" fill="#9e8141" d="M 656.5,1514.5 C 658.027,1514.43 659.027,1515.09 659.5,1516.5C 657.973,1516.57 656.973,1515.91 656.5,1514.5 Z"/></g>
<g><path style="opacity:0.965" fill="#a38543" d="M 938.5,1520.5 C 940.027,1520.43 941.027,1521.09 941.5,1522.5C 939.973,1522.57 938.973,1521.91 938.5,1520.5 Z"/></g>
<g><path style="opacity:0.753" fill="#9f8141" d="M 670.5,1522.5 C 672.027,1522.43 673.027,1523.09 673.5,1524.5C 671.973,1524.57 670.973,1523.91 670.5,1522.5 Z"/></g>
<g><path style="opacity:0.612" fill="#997d3f" d="M 952.5,1532.5 C 953.289,1532.78 953.956,1533.28 954.5,1534C 952.613,1534.78 950.946,1534.61 949.5,1533.5C 950.791,1533.74 951.791,1533.4 952.5,1532.5 Z"/></g>
<g><path style="opacity:0.439" fill="#90753b" d="M 1184.5,1532.5 C 1184.84,1533.34 1185.51,1533.67 1186.5,1533.5C 1185.4,1534.6 1184.07,1534.76 1182.5,1534C 1183.04,1533.28 1183.71,1532.78 1184.5,1532.5 Z"/></g>
</svg>
