<?xml version="1.0" encoding="UTF-8"?>
<!DOCTYPE svg PUBLIC "-//W3C//DTD SVG 1.1//EN" "http://www.w3.org/Graphics/SVG/1.1/DTD/svg11.dtd">
<svg xmlns="http://www.w3.org/2000/svg" version="1.1" width="860px" height="824px" style="shape-rendering:geometricPrecision; text-rendering:geometricPrecision; image-rendering:optimizeQuality; fill-rule:evenodd; clip-rule:evenodd" xmlns:xlink="http://www.w3.org/1999/xlink">
<g><path style="opacity:1" fill="#fefffe" d="M -0.5,-0.5 C 6.16667,-0.5 12.8333,-0.5 19.5,-0.5C 19.5,6.16667 19.5,12.8333 19.5,19.5C 12.8333,19.5 6.16667,19.5 -0.5,19.5C -0.5,12.8333 -0.5,6.16667 -0.5,-0.5 Z"/></g>
<g><path style="opacity:1" fill="#eeefee" d="M 19.5,-0.5 C 26.1667,-0.5 32.8333,-0.5 39.5,-0.5C 39.5,6.16667 39.5,12.8333 39.5,19.5C 32.8333,19.5 26.1667,19.5 19.5,19.5C 19.5,12.8333 19.5,6.16667 19.5,-0.5 Z"/></g>
<g><path style="opacity:1" fill="#eeefee" d="M -0.5,19.5 C 6.16667,19.5 12.8333,19.5 19.5,19.5C 19.5,26.1667 19.5,32.8333 19.5,39.5C 12.8333,39.5 6.16667,39.5 -0.5,39.5C -0.5,32.8333 -0.5,26.1667 -0.5,19.5 Z"/></g>
<g><path style="opacity:1" fill="#fefffe" d="M -0.5,39.5 C 6.16667,39.5 12.8333,39.5 19.5,39.5C 19.5,46.1667 19.5,52.8333 19.5,59.5C 12.8333,59.5 6.16667,59.5 -0.5,59.5C -0.5,52.8333 -0.5,46.1667 -0.5,39.5 Z"/></g>
<g><path style="opacity:1" fill="#010101" d="M 829.5,139.5 C 829.5,146.833 829.5,154.167 829.5,161.5C 829.5,180.833 829.5,200.167 829.5,219.5C 829.5,226.833 829.5,234.167 829.5,241.5C 829.5,260.833 829.5,280.167 829.5,299.5C 829.5,306.833 829.5,314.167 829.5,321.5C 829.5,340.833 829.5,360.167 829.5,379.5C 829.5,386.833 829.5,394.167 829.5,401.5C 829.5,420.833 829.5,440.167 829.5,459.5C 829.5,466.833 829.5,474.167 829.5,481.5C 829.5,500.833 829.5,520.167 829.5,539.5C 829.5,546.833 829.5,554.167 829.5,561.5C 829.962,586.885 829.462,612.218 828,637.5C 823.204,650.976 813.704,658.309 799.5,659.5C 715.166,659.333 630.833,659.5 546.5,660C 545.333,660.5 544.5,661.333 544,662.5C 543.333,687.167 543.333,711.833 544,736.5C 544.708,737.381 545.542,738.047 546.5,738.5C 572.997,739.332 599.664,739.832 626.5,740C 631.105,740.715 634.271,743.215 636,747.5C 637.22,753.872 636.387,759.872 633.5,765.5C 632.335,766.584 631.002,767.417 629.5,768C 612.89,769.441 596.223,769.941 579.5,769.5C 572.833,769.5 566.167,769.5 559.5,769.5C 539.167,769.5 518.833,769.5 498.5,769.5C 491.5,769.5 484.5,769.5 477.5,769.5C 458.167,769.5 438.833,769.5 419.5,769.5C 412.833,769.5 406.167,769.5 399.5,769.5C 379.5,769.5 359.5,769.5 339.5,769.5C 332.833,769.5 326.167,769.5 319.5,769.5C 299.5,769.5 279.5,769.5 259.5,769.5C 252.833,769.5 246.167,769.5 239.5,769.5C 235.298,769.616 231.298,768.783 227.5,767C 225.959,765.421 224.792,763.587 224,761.5C 223.097,755.719 223.43,750.053 225,744.5C 227.805,741.347 231.305,739.681 235.5,739.5C 260.836,739.667 286.169,739.5 311.5,739C 312.766,738.691 313.933,738.191 315,737.5C 315.499,731.843 315.666,726.176 315.5,720.5C 316.148,700.1 315.481,679.933 313.5,660C 228.167,659.667 142.833,659.333 57.5,659C 42.7486,656.581 33.9153,648.081 31,633.5C 30.3333,443.5 30.3333,253.5 31,63.5C 35.2331,52.2674 43.0665,44.7674 54.5,41C 304.5,40.3333 554.5,40.3333 804.5,41C 817.554,43.7206 825.721,51.5539 829,64.5C 829.5,89.4978 829.667,114.498 829.5,139.5 Z"/></g>
<g><path style="opacity:1" fill="#fefefe" d="M 75.5,81.5 C 311.889,81.0029 548.222,81.5029 784.5,83C 785,83.5 785.5,84 786,84.5C 786.667,261.5 786.667,438.5 786,615.5C 785.5,616 785,616.5 784.5,617C 547.833,617.667 311.167,617.667 74.5,617C 73.8742,616.25 73.3742,615.416 73,614.5C 72.3333,437.833 72.3333,261.167 73,84.5C 74.045,83.6266 74.8783,82.6266 75.5,81.5 Z"/></g>
<g><path style="opacity:1" fill="#fefefe" d="M 829.5,139.5 C 832.34,140.12 835.174,140.787 838,141.5C 839.404,147.044 839.904,152.71 839.5,158.5C 846.153,159.054 852.82,159.388 859.5,159.5C 859.5,166.167 859.5,172.833 859.5,179.5C 852.789,179.421 846.289,179.421 840,179.5C 839.5,173.175 839.334,166.842 839.5,160.5C 836.061,160.253 832.728,160.586 829.5,161.5C 829.5,154.167 829.5,146.833 829.5,139.5 Z"/></g>
<g><path style="opacity:1" fill="#f3f3f3" d="M 859.5,179.5 C 859.5,199.5 859.5,219.5 859.5,239.5C 852.82,239.388 846.153,239.054 839.5,238.5C 839.904,232.71 839.404,227.044 838,221.5C 835.174,220.787 832.34,220.12 829.5,219.5C 829.5,200.167 829.5,180.833 829.5,161.5C 832.728,160.586 836.061,160.253 839.5,160.5C 839.334,166.842 839.5,173.175 840,179.5C 846.289,179.421 852.789,179.421 859.5,179.5 Z"/></g>
<g><path style="opacity:1" fill="#f5f5f5" d="M 39.5,-0.5 C 312.833,-0.5 586.167,-0.5 859.5,-0.5C 859.5,52.8333 859.5,106.167 859.5,159.5C 852.82,159.388 846.153,159.054 839.5,158.5C 839.904,152.71 839.404,147.044 838,141.5C 835.174,140.787 832.34,140.12 829.5,139.5C 829.667,114.498 829.5,89.4978 829,64.5C 825.721,51.5539 817.554,43.7206 804.5,41C 554.5,40.3333 304.5,40.3333 54.5,41C 43.0665,44.7674 35.2331,52.2674 31,63.5C 30.3333,253.5 30.3333,443.5 31,633.5C 33.9153,648.081 42.7486,656.581 57.5,659C 142.833,659.333 228.167,659.667 313.5,660C 315.481,679.933 316.148,700.1 315.5,720.5C 310.169,721.018 305.169,721.018 300.5,720.5C 299.504,726.463 299.171,732.463 299.5,738.5C 277.993,738.169 256.66,738.503 235.5,739.5C 231.305,739.681 227.805,741.347 225,744.5C 223.43,750.053 223.097,755.719 224,761.5C 224.792,763.587 225.959,765.421 227.5,767C 231.298,768.783 235.298,769.616 239.5,769.5C 238.676,772.764 238.342,776.098 238.5,779.5C 232.167,779.5 225.833,779.5 219.5,779.5C 219.5,772.833 219.5,766.167 219.5,759.5C 212.833,759.5 206.167,759.5 199.5,759.5C 199.5,752.833 199.5,746.167 199.5,739.5C 192.833,739.5 186.167,739.5 179.5,739.5C 179.5,733.167 179.5,726.833 179.5,720.5C 186.244,720.479 192.911,719.812 199.5,718.5C 199.5,712.167 199.5,705.833 199.5,699.5C 192.833,699.5 186.167,699.5 179.5,699.5C 179.5,692.833 179.5,686.167 179.5,679.5C 173.824,679.334 168.157,679.501 162.5,680C 161.052,683.385 159.885,686.885 159,690.5C 158.502,693.482 158.335,696.482 158.5,699.5C 152.167,699.5 145.833,699.5 139.5,699.5C 139.5,705.833 139.5,712.167 139.5,718.5C 145.797,719.32 152.131,719.653 158.5,719.5C 158.464,725.893 158.631,732.227 159,738.5C 152.59,739.478 146.09,739.811 139.5,739.5C 139.5,746.167 139.5,752.833 139.5,759.5C 145.833,759.5 152.167,759.5 158.5,759.5C 159.623,766.148 159.623,772.815 158.5,779.5C 152.167,779.5 145.833,779.5 139.5,779.5C 139.5,785.833 139.5,792.167 139.5,798.5C 145.797,799.32 152.131,799.653 158.5,799.5C 158.464,805.893 158.631,812.227 159,818.5C 152.59,819.478 146.09,819.811 139.5,819.5C 139.5,813.167 139.5,806.833 139.5,800.5C 132.812,801.145 126.145,801.145 119.5,800.5C 119.5,806.833 119.5,813.167 119.5,819.5C 112.833,819.5 106.167,819.5 99.5,819.5C 99.5,813.167 99.5,806.833 99.5,800.5C 106.244,800.479 112.911,799.812 119.5,798.5C 119.5,792.167 119.5,785.833 119.5,779.5C 112.833,779.5 106.167,779.5 99.5,779.5C 99.5,772.833 99.5,766.167 99.5,759.5C 93.8236,759.666 88.1569,759.499 82.5,759C 80.7647,756.808 79.598,754.308 79,751.5C 78.5012,747.514 78.3345,743.514 78.5,739.5C 72.1667,739.5 65.8333,739.5 59.5,739.5C 59.5,746.167 59.5,752.833 59.5,759.5C 65.8333,759.5 72.1667,759.5 78.5,759.5C 79.6232,766.148 79.6232,772.815 78.5,779.5C 72.1667,779.5 65.8333,779.5 59.5,779.5C 59.5,785.833 59.5,792.167 59.5,798.5C 52.7609,799.239 46.0942,799.239 39.5,798.5C 39.5,792.167 39.5,785.833 39.5,779.5C 32.8333,779.5 26.1667,779.5 19.5,779.5C 19.5,785.833 19.5,792.167 19.5,798.5C 17.901,798.232 16.5676,798.566 15.5,799.5C 10.1667,799.5 4.83333,799.5 -0.5,799.5C -0.5,552.833 -0.5,306.167 -0.5,59.5C 6.16667,59.5 12.8333,59.5 19.5,59.5C 19.5,52.8333 19.5,46.1667 19.5,39.5C 19.5,32.8333 19.5,26.1667 19.5,19.5C 26.1667,19.5 32.8333,19.5 39.5,19.5C 39.5,12.8333 39.5,6.16667 39.5,-0.5 Z"/></g>
<g><path style="opacity:1" fill="#0a0a0a" d="M 99.5,93.5 C 108.508,94.0104 112.008,98.6771 110,107.5C 106.634,112.609 102.134,113.776 96.5,111C 90.4433,103.837 91.4433,98.0033 99.5,93.5 Z"/></g>
<g><path style="opacity:1" fill="#010101" d="M 271.5,236.5 C 273.199,236.34 274.866,236.506 276.5,237C 288.667,249.167 300.833,261.333 313,273.5C 313.667,275.167 313.667,276.833 313,278.5C 289.166,302.001 265.666,325.835 242.5,350C 265.946,373.446 289.446,396.946 313,420.5C 313.706,422.971 313.373,425.305 312,427.5C 299.015,439.651 286.182,451.985 273.5,464.5C 234.238,426.072 195.571,387.238 157.5,348C 159.657,346.088 161.991,344.421 164.5,343C 200.062,307.271 235.728,271.771 271.5,236.5 Z"/></g>
<g><path style="opacity:1" fill="#010101" d="M 584.5,235.5 C 585.552,235.351 586.552,235.517 587.5,236C 624.361,273.195 661.528,310.028 699,346.5C 699.638,347.609 700.138,348.775 700.5,350C 662.413,387.92 624.413,426.087 586.5,464.5C 573.545,453.046 561.045,441.046 549,428.5C 546.184,425.42 545.851,422.087 548,418.5C 570.918,396.583 593.585,374.25 616,351.5C 616.5,350.5 617,349.5 617.5,348.5C 593.82,325.32 570.32,301.987 547,278.5C 546.333,276.833 546.333,275.167 547,273.5C 559.702,260.965 572.202,248.298 584.5,235.5 Z"/></g>
<g><path style="opacity:1" fill="#fefefe" d="M 829.5,219.5 C 832.34,220.12 835.174,220.787 838,221.5C 839.404,227.044 839.904,232.71 839.5,238.5C 846.153,239.054 852.82,239.388 859.5,239.5C 859.5,246.167 859.5,252.833 859.5,259.5C 852.789,259.421 846.289,259.421 840,259.5C 839.5,253.175 839.334,246.842 839.5,240.5C 836.061,240.253 832.728,240.586 829.5,241.5C 829.5,234.167 829.5,226.833 829.5,219.5 Z"/></g>
<g><path style="opacity:1" fill="#010101" d="M 462.5,243.5 C 465.32,243.248 467.986,243.748 470.5,245C 483.333,253.167 496.167,261.333 509,269.5C 509.667,270.833 509.667,272.167 509,273.5C 473.082,331.666 437.416,390 402,448.5C 400.167,451 398.333,453.5 396.5,456C 395.167,456.667 393.833,456.667 392.5,456C 377.833,447 363.167,438 348.5,429C 386.636,367.222 424.636,305.389 462.5,243.5 Z"/></g>
<g><path style="opacity:1" fill="#f3f3f3" d="M 859.5,259.5 C 859.5,279.5 859.5,299.5 859.5,319.5C 852.82,319.388 846.153,319.054 839.5,318.5C 839.904,312.71 839.404,307.044 838,301.5C 835.174,300.787 832.34,300.12 829.5,299.5C 829.5,280.167 829.5,260.833 829.5,241.5C 832.728,240.586 836.061,240.253 839.5,240.5C 839.334,246.842 839.5,253.175 840,259.5C 846.289,259.421 852.789,259.421 859.5,259.5 Z"/></g>
<g><path style="opacity:1" fill="#fefefe" d="M 829.5,299.5 C 832.34,300.12 835.174,300.787 838,301.5C 839.404,307.044 839.904,312.71 839.5,318.5C 846.153,319.054 852.82,319.388 859.5,319.5C 859.5,326.167 859.5,332.833 859.5,339.5C 852.789,339.421 846.289,339.421 840,339.5C 839.5,333.175 839.334,326.842 839.5,320.5C 836.061,320.253 832.728,320.586 829.5,321.5C 829.5,314.167 829.5,306.833 829.5,299.5 Z"/></g>
<g><path style="opacity:1" fill="#f3f3f3" d="M 859.5,339.5 C 859.5,359.5 859.5,379.5 859.5,399.5C 852.82,399.388 846.153,399.054 839.5,398.5C 839.904,392.71 839.404,387.044 838,381.5C 835.174,380.787 832.34,380.12 829.5,379.5C 829.5,360.167 829.5,340.833 829.5,321.5C 832.728,320.586 836.061,320.253 839.5,320.5C 839.334,326.842 839.5,333.175 840,339.5C 846.289,339.421 852.789,339.421 859.5,339.5 Z"/></g>
<g><path style="opacity:1" fill="#fefefe" d="M 829.5,379.5 C 832.34,380.12 835.174,380.787 838,381.5C 839.404,387.044 839.904,392.71 839.5,398.5C 846.153,399.054 852.82,399.388 859.5,399.5C 859.5,406.167 859.5,412.833 859.5,419.5C 852.789,419.421 846.289,419.421 840,419.5C 839.5,413.175 839.334,406.842 839.5,400.5C 836.061,400.253 832.728,400.586 829.5,401.5C 829.5,394.167 829.5,386.833 829.5,379.5 Z"/></g>
<g><path style="opacity:1" fill="#f3f3f3" d="M 859.5,419.5 C 859.5,439.5 859.5,459.5 859.5,479.5C 852.82,479.388 846.153,479.054 839.5,478.5C 839.904,472.71 839.404,467.044 838,461.5C 835.174,460.787 832.34,460.12 829.5,459.5C 829.5,440.167 829.5,420.833 829.5,401.5C 832.728,400.586 836.061,400.253 839.5,400.5C 839.334,406.842 839.5,413.175 840,419.5C 846.289,419.421 852.789,419.421 859.5,419.5 Z"/></g>
<g><path style="opacity:1" fill="#fefefe" d="M 829.5,459.5 C 832.34,460.12 835.174,460.787 838,461.5C 839.404,467.044 839.904,472.71 839.5,478.5C 846.153,479.054 852.82,479.388 859.5,479.5C 859.5,486.167 859.5,492.833 859.5,499.5C 852.789,499.421 846.289,499.421 840,499.5C 839.5,493.175 839.334,486.842 839.5,480.5C 836.061,480.253 832.728,480.586 829.5,481.5C 829.5,474.167 829.5,466.833 829.5,459.5 Z"/></g>
<g><path style="opacity:1" fill="#f3f3f3" d="M 859.5,499.5 C 859.5,519.5 859.5,539.5 859.5,559.5C 852.82,559.388 846.153,559.054 839.5,558.5C 839.904,552.71 839.404,547.044 838,541.5C 835.174,540.787 832.34,540.12 829.5,539.5C 829.5,520.167 829.5,500.833 829.5,481.5C 832.728,480.586 836.061,480.253 839.5,480.5C 839.334,486.842 839.5,493.175 840,499.5C 846.289,499.421 852.789,499.421 859.5,499.5 Z"/></g>
<g><path style="opacity:1" fill="#fefefe" d="M 829.5,539.5 C 832.34,540.12 835.174,540.787 838,541.5C 839.404,547.044 839.904,552.71 839.5,558.5C 846.153,559.054 852.82,559.388 859.5,559.5C 859.5,566.167 859.5,572.833 859.5,579.5C 852.789,579.421 846.289,579.421 840,579.5C 839.5,573.175 839.334,566.842 839.5,560.5C 836.061,560.253 832.728,560.586 829.5,561.5C 829.5,554.167 829.5,546.833 829.5,539.5 Z"/></g>
<g><path style="opacity:1" fill="#f5f5f5" d="M 859.5,579.5 C 859.5,599.5 859.5,619.5 859.5,639.5C 852.82,639.612 846.153,639.946 839.5,640.5C 839.5,646.833 839.5,653.167 839.5,659.5C 833.463,659.171 827.463,659.504 821.5,660.5C 819.994,666.73 819.327,673.063 819.5,679.5C 813.824,679.666 808.157,679.499 802.5,679C 800.926,677.174 800.093,675.007 800,672.5C 799.501,668.179 799.334,663.846 799.5,659.5C 813.704,658.309 823.204,650.976 828,637.5C 829.462,612.218 829.962,586.885 829.5,561.5C 832.728,560.586 836.061,560.253 839.5,560.5C 839.334,566.842 839.5,573.175 840,579.5C 846.289,579.421 852.789,579.421 859.5,579.5 Z"/></g>
<g><path style="opacity:1" fill="#f7f7f7" d="M 859.5,639.5 C 859.5,659.5 859.5,679.5 859.5,699.5C 852.833,699.5 846.167,699.5 839.5,699.5C 839.5,705.833 839.5,712.167 839.5,718.5C 832.923,718.959 826.257,718.959 819.5,718.5C 819.5,712.167 819.5,705.833 819.5,699.5C 813.439,699.21 807.439,699.543 801.5,700.5C 800.749,701.376 800.249,702.376 800,703.5C 799.501,708.823 799.334,714.156 799.5,719.5C 792.798,719.664 786.131,719.331 779.5,718.5C 779.5,712.167 779.5,705.833 779.5,699.5C 772.833,699.5 766.167,699.5 759.5,699.5C 759.5,705.833 759.5,712.167 759.5,718.5C 752.911,719.812 746.244,720.479 739.5,720.5C 739.5,726.833 739.5,733.167 739.5,739.5C 746.167,739.5 752.833,739.5 759.5,739.5C 759.5,746.167 759.5,752.833 759.5,759.5C 766.167,759.5 772.833,759.5 779.5,759.5C 785.833,759.5 792.167,759.5 798.5,759.5C 799.623,766.148 799.623,772.815 798.5,779.5C 792.167,779.5 785.833,779.5 779.5,779.5C 772.833,779.5 766.167,779.5 759.5,779.5C 752.833,779.5 746.167,779.5 739.5,779.5C 739.5,772.833 739.5,766.167 739.5,759.5C 733.824,759.666 728.157,759.499 722.5,759C 720.765,756.808 719.598,754.308 719,751.5C 718.501,747.514 718.334,743.514 718.5,739.5C 718.682,732.959 718.682,726.292 718.5,719.5C 712.131,719.653 705.797,719.32 699.5,718.5C 699.5,712.167 699.5,705.833 699.5,699.5C 680.497,699.333 661.497,699.5 642.5,700C 641.151,700.772 640.318,701.939 640,703.5C 639.501,708.823 639.334,714.156 639.5,719.5C 632.798,719.336 626.131,719.669 619.5,720.5C 619.5,726.5 619.5,732.5 619.5,738.5C 595.167,738.5 570.833,738.5 546.5,738.5C 545.542,738.047 544.708,737.381 544,736.5C 543.333,711.833 543.333,687.167 544,662.5C 544.5,661.333 545.333,660.5 546.5,660C 630.833,659.5 715.166,659.333 799.5,659.5C 799.334,663.846 799.501,668.179 800,672.5C 800.093,675.007 800.926,677.174 802.5,679C 808.157,679.499 813.824,679.666 819.5,679.5C 819.327,673.063 819.994,666.73 821.5,660.5C 827.463,659.504 833.463,659.171 839.5,659.5C 839.5,653.167 839.5,646.833 839.5,640.5C 846.153,639.946 852.82,639.612 859.5,639.5 Z"/></g>
<g><path style="opacity:1" fill="#dddddd" d="M 315.5,720.5 C 315.666,726.176 315.499,731.843 315,737.5C 313.933,738.191 312.766,738.691 311.5,739C 286.169,739.5 260.836,739.667 235.5,739.5C 256.66,738.503 277.993,738.169 299.5,738.5C 299.171,732.463 299.504,726.463 300.5,720.5C 305.169,721.018 310.169,721.018 315.5,720.5 Z"/></g>
<g><path style="opacity:1" fill="#f3f3f3" d="M 718.5,739.5 C 712.167,739.5 705.833,739.5 699.5,739.5C 699.5,746.167 699.5,752.833 699.5,759.5C 705.833,759.5 712.167,759.5 718.5,759.5C 719.623,766.148 719.623,772.815 718.5,779.5C 712.167,779.5 705.833,779.5 699.5,779.5C 699.5,785.833 699.5,792.167 699.5,798.5C 705.797,799.32 712.131,799.653 718.5,799.5C 718.464,805.893 718.631,812.227 719,818.5C 712.59,819.478 706.09,819.811 699.5,819.5C 699.5,813.167 699.5,806.833 699.5,800.5C 692.812,801.145 686.145,801.145 679.5,800.5C 679.5,806.833 679.5,813.167 679.5,819.5C 672.833,819.5 666.167,819.5 659.5,819.5C 659.5,813.167 659.5,806.833 659.5,800.5C 666.244,800.479 672.911,799.812 679.5,798.5C 679.5,792.167 679.5,785.833 679.5,779.5C 672.833,779.5 666.167,779.5 659.5,779.5C 659.5,772.833 659.5,766.167 659.5,759.5C 652.833,759.5 646.167,759.5 639.5,759.5C 638.573,762.045 638.573,764.378 639.5,766.5C 638.96,767.748 638.293,768.915 637.5,770C 638.451,773.057 638.784,776.223 638.5,779.5C 632.123,779.584 625.956,779.584 620,779.5C 619.5,785.825 619.334,792.158 619.5,798.5C 625.797,799.32 632.131,799.653 638.5,799.5C 638.464,805.893 638.631,812.227 639,818.5C 632.59,819.478 626.09,819.811 619.5,819.5C 619.5,813.167 619.5,806.833 619.5,800.5C 612.812,801.145 606.145,801.145 599.5,800.5C 599.5,806.833 599.5,813.167 599.5,819.5C 592.833,819.5 586.167,819.5 579.5,819.5C 579.5,813.167 579.5,806.833 579.5,800.5C 586.244,800.479 592.911,799.812 599.5,798.5C 599.81,792.242 599.476,786.076 598.5,780C 592.175,779.5 585.842,779.334 579.5,779.5C 579.72,775.956 579.72,772.622 579.5,769.5C 596.223,769.941 612.89,769.441 629.5,768C 631.002,767.417 632.335,766.584 633.5,765.5C 636.387,759.872 637.22,753.872 636,747.5C 634.271,743.215 631.105,740.715 626.5,740C 599.664,739.832 572.997,739.332 546.5,738.5C 570.833,738.5 595.167,738.5 619.5,738.5C 619.5,732.5 619.5,726.5 619.5,720.5C 626.131,719.669 632.798,719.336 639.5,719.5C 639.334,714.156 639.501,708.823 640,703.5C 640.318,701.939 641.151,700.772 642.5,700C 661.497,699.5 680.497,699.333 699.5,699.5C 699.5,705.833 699.5,712.167 699.5,718.5C 705.797,719.32 712.131,719.653 718.5,719.5C 718.682,726.292 718.682,732.959 718.5,739.5 Z"/></g>
<g><path style="opacity:1" fill="#f4f4f4" d="M 859.5,699.5 C 859.5,732.833 859.5,766.167 859.5,799.5C 852.82,799.612 846.153,799.946 839.5,800.5C 839.5,806.833 839.5,813.167 839.5,819.5C 832.833,819.5 826.167,819.5 819.5,819.5C 819.5,813.167 819.5,806.833 819.5,800.5C 826.244,800.479 832.911,799.812 839.5,798.5C 839.5,792.167 839.5,785.833 839.5,779.5C 832.833,779.5 826.167,779.5 819.5,779.5C 819.5,772.833 819.5,766.167 819.5,759.5C 813.824,759.666 808.157,759.499 802.5,759C 800.765,756.808 799.598,754.308 799,751.5C 798.501,747.514 798.334,743.514 798.5,739.5C 792.167,739.5 785.833,739.5 779.5,739.5C 779.5,746.167 779.5,752.833 779.5,759.5C 772.833,759.5 766.167,759.5 759.5,759.5C 759.5,752.833 759.5,746.167 759.5,739.5C 752.833,739.5 746.167,739.5 739.5,739.5C 739.5,733.167 739.5,726.833 739.5,720.5C 746.244,720.479 752.911,719.812 759.5,718.5C 759.5,712.167 759.5,705.833 759.5,699.5C 766.167,699.5 772.833,699.5 779.5,699.5C 779.5,705.833 779.5,712.167 779.5,718.5C 786.131,719.331 792.798,719.664 799.5,719.5C 799.334,714.156 799.501,708.823 800,703.5C 800.249,702.376 800.749,701.376 801.5,700.5C 807.439,699.543 813.439,699.21 819.5,699.5C 819.5,705.833 819.5,712.167 819.5,718.5C 826.257,718.959 832.923,718.959 839.5,718.5C 839.5,712.167 839.5,705.833 839.5,699.5C 846.167,699.5 852.833,699.5 859.5,699.5 Z"/></g>
<g><path style="opacity:1" fill="#fefefe" d="M 99.5,779.5 C 93.439,779.21 87.439,779.543 81.5,780.5C 80.7492,781.376 80.2492,782.376 80,783.5C 79.5006,788.823 79.334,794.156 79.5,799.5C 72.7978,799.336 66.1311,799.669 59.5,800.5C 59.5,806.833 59.5,813.167 59.5,819.5C 52.8333,819.5 46.1667,819.5 39.5,819.5C 39.5,813.167 39.5,806.833 39.5,800.5C 36.1765,801.482 33.1765,801.149 30.5,799.5C 25.37,800.804 20.37,800.804 15.5,799.5C 16.5676,798.566 17.901,798.232 19.5,798.5C 19.5,792.167 19.5,785.833 19.5,779.5C 26.1667,779.5 32.8333,779.5 39.5,779.5C 39.5,785.833 39.5,792.167 39.5,798.5C 46.0942,799.239 52.7609,799.239 59.5,798.5C 59.5,792.167 59.5,785.833 59.5,779.5C 65.8333,779.5 72.1667,779.5 78.5,779.5C 79.6232,772.815 79.6232,766.148 78.5,759.5C 72.1667,759.5 65.8333,759.5 59.5,759.5C 59.5,752.833 59.5,746.167 59.5,739.5C 65.8333,739.5 72.1667,739.5 78.5,739.5C 78.3345,743.514 78.5012,747.514 79,751.5C 79.598,754.308 80.7647,756.808 82.5,759C 88.1569,759.499 93.8236,759.666 99.5,759.5C 99.5,766.167 99.5,772.833 99.5,779.5 Z"/></g>
<g><path style="opacity:1" fill="#fafafa" d="M 219.5,779.5 C 225.833,779.5 232.167,779.5 238.5,779.5C 238.342,776.098 238.676,772.764 239.5,769.5C 246.167,769.5 252.833,769.5 259.5,769.5C 259.72,772.622 259.72,775.956 259.5,779.5C 253.794,779.171 248.128,779.505 242.5,780.5C 239.46,786.498 238.793,792.831 240.5,799.5C 246.925,798.132 253.258,798.466 259.5,800.5C 259.5,806.833 259.5,813.167 259.5,819.5C 266.167,819.5 272.833,819.5 279.5,819.5C 279.5,813.167 279.5,806.833 279.5,800.5C 286.089,799.188 292.756,798.521 299.5,798.5C 299.171,792.794 299.505,787.128 300.5,781.5C 306.276,779.605 312.276,778.939 318.5,779.5C 318.253,776.061 318.586,772.728 319.5,769.5C 326.167,769.5 332.833,769.5 339.5,769.5C 339.5,772.833 339.5,776.167 339.5,779.5C 334.208,779.715 329.041,779.715 324,779.5C 323,780.167 322,780.833 321,781.5C 319.419,787.723 319.085,794.056 320,800.5C 320.75,799.874 321.584,799.374 322.5,799C 327.946,798.675 333.279,798.508 338.5,798.5C 338.929,792.316 339.929,786.316 341.5,780.5C 347.463,779.504 353.463,779.171 359.5,779.5C 359.5,785.833 359.5,792.167 359.5,798.5C 354.724,798.487 350.224,799.487 346,801.5C 343.863,800.923 341.696,800.59 339.5,800.5C 339.5,806.833 339.5,813.167 339.5,819.5C 346.167,819.5 352.833,819.5 359.5,819.5C 359.5,813.167 359.5,806.833 359.5,800.5C 366.145,801.145 372.812,801.145 379.5,800.5C 379.5,806.833 379.5,813.167 379.5,819.5C 386.09,819.811 392.59,819.478 399,818.5C 398.631,812.227 398.464,805.893 398.5,799.5C 392.028,799.792 385.694,799.125 379.5,797.5C 378.946,791.605 379.612,785.938 381.5,780.5C 387.128,779.505 392.794,779.171 398.5,779.5C 398.253,776.061 398.586,772.728 399.5,769.5C 406.167,769.5 412.833,769.5 419.5,769.5C 419.5,772.833 419.5,776.167 419.5,779.5C 426.167,779.5 432.833,779.5 439.5,779.5C 439.5,785.833 439.5,792.167 439.5,798.5C 432.911,799.812 426.244,800.479 419.5,800.5C 419.5,806.833 419.5,813.167 419.5,819.5C 426.167,819.5 432.833,819.5 439.5,819.5C 439.5,813.167 439.5,806.833 439.5,800.5C 446.089,799.188 452.756,798.521 459.5,798.5C 459.334,792.824 459.501,787.157 460,781.5C 461.763,780.056 463.763,779.056 466,778.5C 470.066,779.464 474.233,779.797 478.5,779.5C 478.658,776.098 478.324,772.764 477.5,769.5C 484.5,769.5 491.5,769.5 498.5,769.5C 499.414,772.728 499.747,776.061 499.5,779.5C 506.167,779.5 512.833,779.5 519.5,779.5C 519.5,785.833 519.5,792.167 519.5,798.5C 512.911,799.812 506.244,800.479 499.5,800.5C 499.5,806.833 499.5,813.167 499.5,819.5C 506.167,819.5 512.833,819.5 519.5,819.5C 519.5,813.167 519.5,806.833 519.5,800.5C 526.145,801.145 532.812,801.145 539.5,800.5C 539.5,806.833 539.5,813.167 539.5,819.5C 546.09,819.811 552.59,819.478 559,818.5C 558.631,812.227 558.464,805.893 558.5,799.5C 552.131,799.653 545.797,799.32 539.5,798.5C 539.334,792.158 539.5,785.825 540,779.5C 545.956,779.584 552.123,779.584 558.5,779.5C 558.253,776.061 558.586,772.728 559.5,769.5C 566.167,769.5 572.833,769.5 579.5,769.5C 579.72,772.622 579.72,775.956 579.5,779.5C 585.842,779.334 592.175,779.5 598.5,780C 599.476,786.076 599.81,792.242 599.5,798.5C 592.911,799.812 586.244,800.479 579.5,800.5C 579.5,806.833 579.5,813.167 579.5,819.5C 586.167,819.5 592.833,819.5 599.5,819.5C 599.5,813.167 599.5,806.833 599.5,800.5C 606.145,801.145 612.812,801.145 619.5,800.5C 619.5,806.833 619.5,813.167 619.5,819.5C 626.09,819.811 632.59,819.478 639,818.5C 638.631,812.227 638.464,805.893 638.5,799.5C 632.131,799.653 625.797,799.32 619.5,798.5C 619.334,792.158 619.5,785.825 620,779.5C 625.956,779.584 632.123,779.584 638.5,779.5C 638.784,776.223 638.451,773.057 637.5,770C 638.293,768.915 638.96,767.748 639.5,766.5C 638.573,764.378 638.573,762.045 639.5,759.5C 646.167,759.5 652.833,759.5 659.5,759.5C 659.5,766.167 659.5,772.833 659.5,779.5C 666.167,779.5 672.833,779.5 679.5,779.5C 679.5,785.833 679.5,792.167 679.5,798.5C 672.911,799.812 666.244,800.479 659.5,800.5C 659.5,806.833 659.5,813.167 659.5,819.5C 666.167,819.5 672.833,819.5 679.5,819.5C 679.5,813.167 679.5,806.833 679.5,800.5C 686.145,801.145 692.812,801.145 699.5,800.5C 699.5,806.833 699.5,813.167 699.5,819.5C 706.09,819.811 712.59,819.478 719,818.5C 718.631,812.227 718.464,805.893 718.5,799.5C 712.131,799.653 705.797,799.32 699.5,798.5C 699.5,792.167 699.5,785.833 699.5,779.5C 705.833,779.5 712.167,779.5 718.5,779.5C 719.623,772.815 719.623,766.148 718.5,759.5C 712.167,759.5 705.833,759.5 699.5,759.5C 699.5,752.833 699.5,746.167 699.5,739.5C 705.833,739.5 712.167,739.5 718.5,739.5C 718.334,743.514 718.501,747.514 719,751.5C 719.598,754.308 720.765,756.808 722.5,759C 728.157,759.499 733.824,759.666 739.5,759.5C 739.5,766.167 739.5,772.833 739.5,779.5C 746.167,779.5 752.833,779.5 759.5,779.5C 759.5,785.833 759.5,792.167 759.5,798.5C 752.911,799.812 746.244,800.479 739.5,800.5C 739.5,806.833 739.5,813.167 739.5,819.5C 746.167,819.5 752.833,819.5 759.5,819.5C 759.5,813.167 759.5,806.833 759.5,800.5C 766.145,801.145 772.812,801.145 779.5,800.5C 779.5,806.833 779.5,813.167 779.5,819.5C 786.09,819.811 792.59,819.478 799,818.5C 798.631,812.227 798.464,805.893 798.5,799.5C 792.131,799.653 785.797,799.32 779.5,798.5C 779.5,792.167 779.5,785.833 779.5,779.5C 785.833,779.5 792.167,779.5 798.5,779.5C 799.623,772.815 799.623,766.148 798.5,759.5C 792.167,759.5 785.833,759.5 779.5,759.5C 779.5,752.833 779.5,746.167 779.5,739.5C 785.833,739.5 792.167,739.5 798.5,739.5C 798.334,743.514 798.501,747.514 799,751.5C 799.598,754.308 800.765,756.808 802.5,759C 808.157,759.499 813.824,759.666 819.5,759.5C 819.5,766.167 819.5,772.833 819.5,779.5C 826.167,779.5 832.833,779.5 839.5,779.5C 839.5,785.833 839.5,792.167 839.5,798.5C 832.911,799.812 826.244,800.479 819.5,800.5C 819.5,806.833 819.5,813.167 819.5,819.5C 826.167,819.5 832.833,819.5 839.5,819.5C 839.5,813.167 839.5,806.833 839.5,800.5C 846.153,799.946 852.82,799.612 859.5,799.5C 859.5,807.5 859.5,815.5 859.5,823.5C 572.833,823.5 286.167,823.5 -0.5,823.5C -0.5,815.5 -0.5,807.5 -0.5,799.5C 4.83333,799.5 10.1667,799.5 15.5,799.5C 20.37,800.804 25.37,800.804 30.5,799.5C 33.1765,801.149 36.1765,801.482 39.5,800.5C 39.5,806.833 39.5,813.167 39.5,819.5C 46.1667,819.5 52.8333,819.5 59.5,819.5C 59.5,813.167 59.5,806.833 59.5,800.5C 66.1311,799.669 72.7978,799.336 79.5,799.5C 79.334,794.156 79.5006,788.823 80,783.5C 80.2492,782.376 80.7492,781.376 81.5,780.5C 87.439,779.543 93.439,779.21 99.5,779.5C 106.167,779.5 112.833,779.5 119.5,779.5C 119.5,785.833 119.5,792.167 119.5,798.5C 112.911,799.812 106.244,800.479 99.5,800.5C 99.5,806.833 99.5,813.167 99.5,819.5C 106.167,819.5 112.833,819.5 119.5,819.5C 119.5,813.167 119.5,806.833 119.5,800.5C 126.145,801.145 132.812,801.145 139.5,800.5C 139.5,806.833 139.5,813.167 139.5,819.5C 146.09,819.811 152.59,819.478 159,818.5C 158.631,812.227 158.464,805.893 158.5,799.5C 152.131,799.653 145.797,799.32 139.5,798.5C 139.5,792.167 139.5,785.833 139.5,779.5C 145.833,779.5 152.167,779.5 158.5,779.5C 159.623,772.815 159.623,766.148 158.5,759.5C 152.167,759.5 145.833,759.5 139.5,759.5C 139.5,752.833 139.5,746.167 139.5,739.5C 146.09,739.811 152.59,739.478 159,738.5C 158.631,732.227 158.464,725.893 158.5,719.5C 152.131,719.653 145.797,719.32 139.5,718.5C 139.5,712.167 139.5,705.833 139.5,699.5C 145.833,699.5 152.167,699.5 158.5,699.5C 158.335,696.482 158.502,693.482 159,690.5C 159.885,686.885 161.052,683.385 162.5,680C 168.157,679.501 173.824,679.334 179.5,679.5C 179.5,686.167 179.5,692.833 179.5,699.5C 186.167,699.5 192.833,699.5 199.5,699.5C 199.5,705.833 199.5,712.167 199.5,718.5C 192.911,719.812 186.244,720.479 179.5,720.5C 179.5,726.833 179.5,733.167 179.5,739.5C 186.167,739.5 192.833,739.5 199.5,739.5C 199.5,746.167 199.5,752.833 199.5,759.5C 206.167,759.5 212.833,759.5 219.5,759.5C 219.5,766.167 219.5,772.833 219.5,779.5 Z"/></g>
<g><path style="opacity:1" fill="#efefef" d="M 759.5,779.5 C 766.167,779.5 772.833,779.5 779.5,779.5C 779.5,785.833 779.5,792.167 779.5,798.5C 785.797,799.32 792.131,799.653 798.5,799.5C 798.464,805.893 798.631,812.227 799,818.5C 792.59,819.478 786.09,819.811 779.5,819.5C 779.5,813.167 779.5,806.833 779.5,800.5C 772.812,801.145 766.145,801.145 759.5,800.5C 759.5,806.833 759.5,813.167 759.5,819.5C 752.833,819.5 746.167,819.5 739.5,819.5C 739.5,813.167 739.5,806.833 739.5,800.5C 746.244,800.479 752.911,799.812 759.5,798.5C 759.5,792.167 759.5,785.833 759.5,779.5 Z"/></g>
<g><path style="opacity:1" fill="#f1f1f1" d="M 498.5,769.5 C 518.833,769.5 539.167,769.5 559.5,769.5C 558.586,772.728 558.253,776.061 558.5,779.5C 552.123,779.584 545.956,779.584 540,779.5C 539.5,785.825 539.334,792.158 539.5,798.5C 545.797,799.32 552.131,799.653 558.5,799.5C 558.464,805.893 558.631,812.227 559,818.5C 552.59,819.478 546.09,819.811 539.5,819.5C 539.5,813.167 539.5,806.833 539.5,800.5C 532.812,801.145 526.145,801.145 519.5,800.5C 519.5,806.833 519.5,813.167 519.5,819.5C 512.833,819.5 506.167,819.5 499.5,819.5C 499.5,813.167 499.5,806.833 499.5,800.5C 506.244,800.479 512.911,799.812 519.5,798.5C 519.5,792.167 519.5,785.833 519.5,779.5C 512.833,779.5 506.167,779.5 499.5,779.5C 499.747,776.061 499.414,772.728 498.5,769.5 Z"/></g>
<g><path style="opacity:1" fill="#f1f1f1" d="M 339.5,769.5 C 359.5,769.5 379.5,769.5 399.5,769.5C 398.586,772.728 398.253,776.061 398.5,779.5C 392.794,779.171 387.128,779.505 381.5,780.5C 379.612,785.938 378.946,791.605 379.5,797.5C 385.694,799.125 392.028,799.792 398.5,799.5C 398.464,805.893 398.631,812.227 399,818.5C 392.59,819.478 386.09,819.811 379.5,819.5C 379.5,813.167 379.5,806.833 379.5,800.5C 372.812,801.145 366.145,801.145 359.5,800.5C 359.5,806.833 359.5,813.167 359.5,819.5C 352.833,819.5 346.167,819.5 339.5,819.5C 339.5,813.167 339.5,806.833 339.5,800.5C 341.696,800.59 343.863,800.923 346,801.5C 350.224,799.487 354.724,798.487 359.5,798.5C 359.5,792.167 359.5,785.833 359.5,779.5C 353.463,779.171 347.463,779.504 341.5,780.5C 339.929,786.316 338.929,792.316 338.5,798.5C 333.279,798.508 327.946,798.675 322.5,799C 321.584,799.374 320.75,799.874 320,800.5C 319.085,794.056 319.419,787.723 321,781.5C 322,780.833 323,780.167 324,779.5C 329.041,779.715 334.208,779.715 339.5,779.5C 339.5,776.167 339.5,772.833 339.5,769.5 Z"/></g>
<g><path style="opacity:1" fill="#f4f4f4" d="M 259.5,769.5 C 279.5,769.5 299.5,769.5 319.5,769.5C 318.586,772.728 318.253,776.061 318.5,779.5C 312.276,778.939 306.276,779.605 300.5,781.5C 299.505,787.128 299.171,792.794 299.5,798.5C 292.756,798.521 286.089,799.188 279.5,800.5C 279.5,806.833 279.5,813.167 279.5,819.5C 272.833,819.5 266.167,819.5 259.5,819.5C 259.5,813.167 259.5,806.833 259.5,800.5C 253.258,798.466 246.925,798.132 240.5,799.5C 238.793,792.831 239.46,786.498 242.5,780.5C 248.128,779.505 253.794,779.171 259.5,779.5C 259.72,775.956 259.72,772.622 259.5,769.5 Z"/></g>
<g><path style="opacity:1" fill="#efefef" d="M 219.5,779.5 C 219.5,785.833 219.5,792.167 219.5,798.5C 225.797,799.32 232.131,799.653 238.5,799.5C 238.464,805.893 238.631,812.227 239,818.5C 232.59,819.478 226.09,819.811 219.5,819.5C 219.5,813.167 219.5,806.833 219.5,800.5C 212.812,801.145 206.145,801.145 199.5,800.5C 199.5,806.833 199.5,813.167 199.5,819.5C 192.833,819.5 186.167,819.5 179.5,819.5C 179.5,813.167 179.5,806.833 179.5,800.5C 186.244,800.479 192.911,799.812 199.5,798.5C 199.5,792.167 199.5,785.833 199.5,779.5C 206.167,779.5 212.833,779.5 219.5,779.5 Z"/></g>
<g><path style="opacity:1" fill="#f1f1f1" d="M 419.5,769.5 C 438.833,769.5 458.167,769.5 477.5,769.5C 478.324,772.764 478.658,776.098 478.5,779.5C 474.233,779.797 470.066,779.464 466,778.5C 463.763,779.056 461.763,780.056 460,781.5C 459.501,787.157 459.334,792.824 459.5,798.5C 452.756,798.521 446.089,799.188 439.5,800.5C 439.5,806.833 439.5,813.167 439.5,819.5C 432.833,819.5 426.167,819.5 419.5,819.5C 419.5,813.167 419.5,806.833 419.5,800.5C 426.244,800.479 432.911,799.812 439.5,798.5C 439.5,792.167 439.5,785.833 439.5,779.5C 432.833,779.5 426.167,779.5 419.5,779.5C 419.5,776.167 419.5,772.833 419.5,769.5 Z"/></g>
</svg>
